<?xml version="1.0" encoding="utf-8"?>
<!-- Generator: Adobe Illustrator 21.1.0, SVG Export Plug-In . SVG Version: 6.00 Build 0)  -->
<svg version="1.1" id="Layer_1" xmlns="http://www.w3.org/2000/svg" xmlns:xlink="http://www.w3.org/1999/xlink" x="0px" y="0px"
	 viewBox="0 0 400 200" style="enable-background:new 0 0 400 200;" xml:space="preserve">
<style type="text/css">
	.st0{clip-path:url(#SVGID_2_);fill:#221F20;}
	.st1{clip-path:url(#SVGID_4_);fill:#221F20;}
	.st2{clip-path:url(#SVGID_6_);enable-background:new    ;}
	.st3{clip-path:url(#SVGID_8_);}
	.st4{clip-path:url(#SVGID_10_);}
	.st5{clip-path:url(#SVGID_12_);fill:#221F20;}
	.st6{clip-path:url(#SVGID_14_);enable-background:new    ;}
	.st7{clip-path:url(#SVGID_16_);}
	.st8{clip-path:url(#SVGID_18_);}
	.st9{clip-path:url(#SVGID_20_);fill:#221F20;}
	.st10{clip-path:url(#SVGID_22_);enable-background:new    ;}
	.st11{clip-path:url(#SVGID_24_);}
	.st12{clip-path:url(#SVGID_26_);}
	.st13{clip-path:url(#SVGID_28_);fill:#221F20;}
	.st14{clip-path:url(#SVGID_30_);enable-background:new    ;}
	.st15{clip-path:url(#SVGID_32_);}
	.st16{clip-path:url(#SVGID_34_);}
	.st17{clip-path:url(#SVGID_36_);fill:#221F20;}
	.st18{clip-path:url(#SVGID_38_);enable-background:new    ;}
	.st19{clip-path:url(#SVGID_40_);}
	.st20{clip-path:url(#SVGID_42_);}
	.st21{clip-path:url(#SVGID_44_);fill:#221F20;}
	.st22{clip-path:url(#SVGID_46_);enable-background:new    ;}
	.st23{clip-path:url(#SVGID_48_);}
	.st24{clip-path:url(#SVGID_50_);}
	.st25{clip-path:url(#SVGID_52_);fill:#221F20;}
	.st26{clip-path:url(#SVGID_54_);enable-background:new    ;}
	.st27{clip-path:url(#SVGID_56_);}
	.st28{clip-path:url(#SVGID_58_);}
	.st29{clip-path:url(#SVGID_60_);fill:#221F20;}
	.st30{clip-path:url(#SVGID_62_);enable-background:new    ;}
	.st31{clip-path:url(#SVGID_64_);}
	.st32{clip-path:url(#SVGID_66_);}
	.st33{clip-path:url(#SVGID_68_);fill:#221F20;}
	.st34{clip-path:url(#SVGID_70_);enable-background:new    ;}
	.st35{clip-path:url(#SVGID_72_);}
	.st36{clip-path:url(#SVGID_74_);}
	.st37{clip-path:url(#SVGID_76_);fill:#221F20;}
	.st38{clip-path:url(#SVGID_78_);enable-background:new    ;}
	.st39{clip-path:url(#SVGID_80_);}
	.st40{clip-path:url(#SVGID_82_);}
	.st41{clip-path:url(#SVGID_84_);fill:#221F20;}
</style>
<g>
	<defs>
		<polygon id="SVGID_1_" points="1,85.3 1,110.9 7.7,110.9 7.7,100.9 15.1,100.9 15.1,95.2 7.7,95.2 7.7,90.9 15.9,90.9 15.9,85.3 
					"/>
	</defs>
	<clipPath id="SVGID_2_">
		<use xlink:href="#SVGID_1_"  style="overflow:visible;"/>
	</clipPath>
	<rect x="-4" y="80.3" class="st0" width="24.9" height="35.6"/>
</g>
<g>
	<defs>
		<path id="SVGID_3_" d="M24.5,96.3L24.5,96.3c1.3-2.1,3.3-3.1,5.8-3.1h1.2v6c-0.9-0.5-1.7-0.6-2.6-0.6c-3.5,0-4.3,2.3-4.3,5.3v7
			h-6.2V93.5h6.2V96.3z"/>
	</defs>
	<clipPath id="SVGID_4_">
		<use xlink:href="#SVGID_3_"  style="overflow:visible;"/>
	</clipPath>
	<rect x="13.2" y="88.2" class="st1" width="23.2" height="27.7"/>
</g>
<g>
	<defs>
		<rect id="SVGID_5_" x="1" y="83.3" width="233.4" height="28.2"/>
	</defs>
	<clipPath id="SVGID_6_">
		<use xlink:href="#SVGID_5_"  style="overflow:visible;"/>
	</clipPath>
	<g class="st2">
		<g>
			<defs>
				<rect id="SVGID_7_" x="33" y="83" width="8" height="28"/>
			</defs>
			<clipPath id="SVGID_8_">
				<use xlink:href="#SVGID_7_"  style="overflow:visible;"/>
			</clipPath>
			<g class="st3">
				<defs>
					<path id="SVGID_9_" d="M40.4,86.8c0,1.9-1.6,3.5-3.5,3.5c-1.9,0-3.5-1.6-3.5-3.5c0-1.9,1.6-3.5,3.5-3.5
						C38.8,83.3,40.4,84.9,40.4,86.8z M33.8,110.9H40V93.5h-6.2V110.9z"/>
				</defs>
				<clipPath id="SVGID_10_">
					<use xlink:href="#SVGID_9_"  style="overflow:visible;"/>
				</clipPath>
				<g class="st4">
					<defs>
						<rect id="SVGID_11_" x="1" y="83" width="234" height="29"/>
					</defs>
					<clipPath id="SVGID_12_">
						<use xlink:href="#SVGID_11_"  style="overflow:visible;"/>
					</clipPath>
					<rect x="28.4" y="78.3" class="st5" width="17" height="37.6"/>
				</g>
			</g>
		</g>
	</g>
</g>
<g>
	<defs>
		<rect id="SVGID_13_" x="1" y="83.3" width="233.4" height="28.2"/>
	</defs>
	<clipPath id="SVGID_14_">
		<use xlink:href="#SVGID_13_"  style="overflow:visible;"/>
	</clipPath>
	<g class="st6">
		<g>
			<defs>
				<rect id="SVGID_15_" x="43" y="88" width="13" height="23"/>
			</defs>
			<clipPath id="SVGID_16_">
				<use xlink:href="#SVGID_15_"  style="overflow:visible;"/>
			</clipPath>
			<g class="st7">
				<defs>
					<polygon id="SVGID_17_" points="51.6,110.9 45.3,110.9 45.3,98.6 43.3,98.6 43.3,93.5 45.3,93.5 45.3,88.2 51.6,88.2 
						51.6,93.5 55.1,93.5 55.1,98.6 51.6,98.6 					"/>
				</defs>
				<clipPath id="SVGID_18_">
					<use xlink:href="#SVGID_17_"  style="overflow:visible;"/>
				</clipPath>
				<g class="st8">
					<defs>
						<rect id="SVGID_19_" x="1" y="83" width="234" height="29"/>
					</defs>
					<clipPath id="SVGID_20_">
						<use xlink:href="#SVGID_19_"  style="overflow:visible;"/>
					</clipPath>
					<rect x="38.3" y="83.2" class="st9" width="21.8" height="32.7"/>
				</g>
			</g>
		</g>
	</g>
</g>
<g>
	<defs>
		<rect id="SVGID_21_" x="1" y="83.3" width="233.4" height="28.2"/>
	</defs>
	<clipPath id="SVGID_22_">
		<use xlink:href="#SVGID_21_"  style="overflow:visible;"/>
	</clipPath>
	<g class="st10">
		<g>
			<defs>
				<rect id="SVGID_23_" x="56" y="93" width="20" height="18"/>
			</defs>
			<clipPath id="SVGID_24_">
				<use xlink:href="#SVGID_23_"  style="overflow:visible;"/>
			</clipPath>
			<g class="st11">
				<defs>
					<polygon id="SVGID_25_" points="74.4,105.8 74.4,110.9 56.5,110.9 64.8,98.6 57.6,98.6 57.6,93.5 75.2,93.5 67,105.8 					"/>
				</defs>
				<clipPath id="SVGID_26_">
					<use xlink:href="#SVGID_25_"  style="overflow:visible;"/>
				</clipPath>
				<g class="st12">
					<defs>
						<rect id="SVGID_27_" x="1" y="83" width="234" height="29"/>
					</defs>
					<clipPath id="SVGID_28_">
						<use xlink:href="#SVGID_27_"  style="overflow:visible;"/>
					</clipPath>
					<rect x="51.5" y="88.5" class="st13" width="28.7" height="27.4"/>
				</g>
			</g>
		</g>
	</g>
</g>
<g>
	<defs>
		<rect id="SVGID_29_" x="1" y="83.3" width="233.4" height="28.2"/>
	</defs>
	<clipPath id="SVGID_30_">
		<use xlink:href="#SVGID_29_"  style="overflow:visible;"/>
	</clipPath>
	<g class="st14">
		<g>
			<defs>
				<rect id="SVGID_31_" x="88" y="85" width="24" height="26"/>
			</defs>
			<clipPath id="SVGID_32_">
				<use xlink:href="#SVGID_31_"  style="overflow:visible;"/>
			</clipPath>
			<g class="st15">
				<defs>
					<polygon id="SVGID_33_" points="104.6,95.2 104.6,85.3 111.4,85.3 111.4,110.9 104.6,110.9 104.6,100.4 94.9,100.4 94.9,110.9 
						88.2,110.9 88.2,85.3 94.9,85.3 94.9,95.2 					"/>
				</defs>
				<clipPath id="SVGID_34_">
					<use xlink:href="#SVGID_33_"  style="overflow:visible;"/>
				</clipPath>
				<g class="st16">
					<defs>
						<rect id="SVGID_35_" x="1" y="83" width="234" height="29"/>
					</defs>
					<clipPath id="SVGID_36_">
						<use xlink:href="#SVGID_35_"  style="overflow:visible;"/>
					</clipPath>
					<rect x="83.2" y="80.3" class="st17" width="33.2" height="35.6"/>
				</g>
			</g>
		</g>
	</g>
</g>
<g>
	<defs>
		<rect id="SVGID_37_" x="1" y="83.3" width="233.4" height="28.2"/>
	</defs>
	<clipPath id="SVGID_38_">
		<use xlink:href="#SVGID_37_"  style="overflow:visible;"/>
	</clipPath>
	<g class="st18">
		<g>
			<defs>
				<rect id="SVGID_39_" x="114" y="92" width="21" height="20"/>
			</defs>
			<clipPath id="SVGID_40_">
				<use xlink:href="#SVGID_39_"  style="overflow:visible;"/>
			</clipPath>
			<g class="st19">
				<defs>
					<path id="SVGID_41_" d="M134.9,110.9h-6.2V109h-0.1c-1.1,1.7-3.3,2.5-5.3,2.5c-5.2,0-8.9-4.3-8.9-9.3c0-5,3.6-9.3,8.8-9.3
						c2,0,4.2,0.7,5.5,2.3v-1.7h6.2V110.9z M120.8,102.2c0,2.2,1.5,3.9,4,3.9s4-1.7,4-3.9c0-2.1-1.5-3.9-4-3.9
						S120.8,100.1,120.8,102.2z"/>
				</defs>
				<clipPath id="SVGID_42_">
					<use xlink:href="#SVGID_41_"  style="overflow:visible;"/>
				</clipPath>
				<g class="st20">
					<defs>
						<rect id="SVGID_43_" x="1" y="83" width="234" height="29"/>
					</defs>
					<clipPath id="SVGID_44_">
						<use xlink:href="#SVGID_43_"  style="overflow:visible;"/>
					</clipPath>
					<rect x="109.4" y="87.9" class="st21" width="30.5" height="28.6"/>
				</g>
			</g>
		</g>
	</g>
</g>
<g>
	<defs>
		<rect id="SVGID_45_" x="1" y="83.3" width="233.4" height="28.2"/>
	</defs>
	<clipPath id="SVGID_46_">
		<use xlink:href="#SVGID_45_"  style="overflow:visible;"/>
	</clipPath>
	<g class="st22">
		<g>
			<defs>
				<rect id="SVGID_47_" x="139" y="92" width="20" height="19"/>
			</defs>
			<clipPath id="SVGID_48_">
				<use xlink:href="#SVGID_47_"  style="overflow:visible;"/>
			</clipPath>
			<g class="st23">
				<defs>
					<path id="SVGID_49_" d="M145.9,95.7L145.9,95.7c1.5-2.1,3.3-2.8,5.7-2.8c4.7,0,6.6,3,6.6,7.2v10.8H152v-8.5
						c0-1.7,0.3-4.6-2.8-4.6c-2.5,0-3.3,1.9-3.3,4v9h-6.2V93.5h6.2V95.7z"/>
				</defs>
				<clipPath id="SVGID_50_">
					<use xlink:href="#SVGID_49_"  style="overflow:visible;"/>
				</clipPath>
				<g class="st24">
					<defs>
						<rect id="SVGID_51_" x="1" y="83" width="234" height="29"/>
					</defs>
					<clipPath id="SVGID_52_">
						<use xlink:href="#SVGID_51_"  style="overflow:visible;"/>
					</clipPath>
					<rect x="134.6" y="87.9" class="st25" width="28.6" height="28"/>
				</g>
			</g>
		</g>
	</g>
</g>
<g>
	<defs>
		<rect id="SVGID_53_" x="1" y="83.3" width="233.4" height="28.2"/>
	</defs>
	<clipPath id="SVGID_54_">
		<use xlink:href="#SVGID_53_"  style="overflow:visible;"/>
	</clipPath>
	<g class="st26">
		<g>
			<defs>
				<rect id="SVGID_55_" x="160" y="92" width="16" height="20"/>
			</defs>
			<clipPath id="SVGID_56_">
				<use xlink:href="#SVGID_55_"  style="overflow:visible;"/>
			</clipPath>
			<g class="st27">
				<defs>
					<path id="SVGID_57_" d="M173.3,98c-1-0.5-2.3-0.9-3.4-0.9c-0.7,0-2,0.3-2,1.2c0,1.2,2,1.4,2.8,1.5c2.9,0.6,5.1,1.9,5.1,5.2
						c0,4.6-4.2,6.5-8.3,6.5c-2.5,0-5-0.7-7.1-2l2.3-4.3c1.3,0.9,3.4,1.8,4.9,1.8c0.8,0,2-0.4,2-1.3c0-1.4-2-1.4-3.9-1.9
						c-2-0.5-3.9-1.5-3.9-4.6c0-4.3,3.9-6.2,7.8-6.2c2,0,4,0.3,5.8,1.1L173.3,98z"/>
				</defs>
				<clipPath id="SVGID_58_">
					<use xlink:href="#SVGID_57_"  style="overflow:visible;"/>
				</clipPath>
				<g class="st28">
					<defs>
						<rect id="SVGID_59_" x="1" y="83" width="234" height="29"/>
					</defs>
					<clipPath id="SVGID_60_">
						<use xlink:href="#SVGID_59_"  style="overflow:visible;"/>
					</clipPath>
					<rect x="155.5" y="87.9" class="st29" width="25.4" height="28.6"/>
				</g>
			</g>
		</g>
	</g>
</g>
<g>
	<defs>
		<rect id="SVGID_61_" x="1" y="83.3" width="233.4" height="28.2"/>
	</defs>
	<clipPath id="SVGID_62_">
		<use xlink:href="#SVGID_61_"  style="overflow:visible;"/>
	</clipPath>
	<g class="st30">
		<g>
			<defs>
				<rect id="SVGID_63_" x="178" y="92" width="21" height="20"/>
			</defs>
			<clipPath id="SVGID_64_">
				<use xlink:href="#SVGID_63_"  style="overflow:visible;"/>
			</clipPath>
			<g class="st31">
				<defs>
					<path id="SVGID_65_" d="M198,103.2h-13.1c0,2.5,1.3,3.9,3.9,3.9c1.3,0,2.3-0.4,3-1.6h6c-1,4.1-4.9,6-9,6
						c-5.8,0-10.2-3.3-10.2-9.3c0-5.8,4-9.3,9.7-9.3c6.1,0,9.6,3.7,9.6,9.7V103.2z M192.2,99.7c-0.3-1.7-1.9-2.8-3.5-2.8
						c-1.8,0-3.3,1-3.7,2.8H192.2z"/>
				</defs>
				<clipPath id="SVGID_66_">
					<use xlink:href="#SVGID_65_"  style="overflow:visible;"/>
				</clipPath>
				<g class="st32">
					<defs>
						<rect id="SVGID_67_" x="1" y="83" width="234" height="29"/>
					</defs>
					<clipPath id="SVGID_68_">
						<use xlink:href="#SVGID_67_"  style="overflow:visible;"/>
					</clipPath>
					<rect x="173.6" y="87.9" class="st33" width="29.4" height="28.6"/>
				</g>
			</g>
		</g>
	</g>
</g>
<g>
	<defs>
		<rect id="SVGID_69_" x="1" y="83.3" width="233.4" height="28.2"/>
	</defs>
	<clipPath id="SVGID_70_">
		<use xlink:href="#SVGID_69_"  style="overflow:visible;"/>
	</clipPath>
	<g class="st34">
		<g>
			<defs>
				<rect id="SVGID_71_" x="201" y="92" width="20" height="19"/>
			</defs>
			<clipPath id="SVGID_72_">
				<use xlink:href="#SVGID_71_"  style="overflow:visible;"/>
			</clipPath>
			<g class="st35">
				<defs>
					<path id="SVGID_73_" d="M207.7,95.7L207.7,95.7c1.5-2.1,3.3-2.8,5.7-2.8c4.7,0,6.6,3,6.6,7.2v10.8h-6.2v-8.5
						c0-1.7,0.3-4.6-2.8-4.6c-2.5,0-3.3,1.9-3.3,4v9h-6.2V93.5h6.2V95.7z"/>
				</defs>
				<clipPath id="SVGID_74_">
					<use xlink:href="#SVGID_73_"  style="overflow:visible;"/>
				</clipPath>
				<g class="st36">
					<defs>
						<rect id="SVGID_75_" x="1" y="83" width="234" height="29"/>
					</defs>
					<clipPath id="SVGID_76_">
						<use xlink:href="#SVGID_75_"  style="overflow:visible;"/>
					</clipPath>
					<rect x="196.5" y="87.9" class="st37" width="28.6" height="28"/>
				</g>
			</g>
		</g>
	</g>
</g>
<g>
	<defs>
		<rect id="SVGID_77_" x="1" y="83.3" width="233.4" height="28.2"/>
	</defs>
	<clipPath id="SVGID_78_">
		<use xlink:href="#SVGID_77_"  style="overflow:visible;"/>
	</clipPath>
	<g class="st38">
		<g>
			<defs>
				<rect id="SVGID_79_" x="221" y="84" width="15" height="14"/>
			</defs>
			<clipPath id="SVGID_80_">
				<use xlink:href="#SVGID_79_"  style="overflow:visible;"/>
			</clipPath>
			<g class="st39">
				<defs>
					<path id="SVGID_81_" d="M227.2,95c0,0.6-0.1,0.7-0.3,0.7c-0.4,0-1.7-0.5-2.3-1.1c-1.1-1.1-1.1-1.9-0.9-2.3
						c0.2-0.5,1.2-0.2,1.8-0.2c0.6,0,1.6-0.2,1.9-1.2c0.4-1.4-0.2-1.7-0.9-2.5c-0.3-0.4-0.6-1,0.3-1.5c0.9-0.5,2.1-0.4,2.9,0.1
						c0.8,0.5,0.6,1.4,0.3,1.8c-0.4,0.7-1.3,1.3-2.1,2.9C227.3,93,227.2,94.5,227.2,95 M229.1,95.8c-0.2-0.1-0.2-0.7-0.2-1.3
						c0.1-0.9,0.3-1.4,0.9-2c0.5-0.5,1.8-0.8,2.6-0.1c0.7,0.7-0.2,1.9-1.1,2.7C230.3,96,229.4,96,229.1,95.8 M230.5,90.8
						c0,0,0.4-0.5,0.6-0.8c0.6-0.6,1-1.5,0.8-2.5c-0.2-1.1-1.1-2.2-3-2.5c-1.8-0.2-3.7,0.2-4.4,1.9c-0.5,1,0.3,2.2,0.5,2.5
						c0.2,0.3,0.9,0.9,0.7,1.1c-0.2,0.2-1.6-0.4-2.8,0.2c-0.9,0.5-1.8,1.5-0.9,3.4c0.9,1.9,3.4,3.2,5.5,3.4c2.6,0.3,5.4-1.1,6.4-3.2
						c1.2-2.6-0.9-3.8-2-3.9C231.4,90.5,230.5,90.8,230.5,90.8"/>
				</defs>
				<clipPath id="SVGID_82_">
					<use xlink:href="#SVGID_81_"  style="overflow:visible;"/>
				</clipPath>
				<g class="st40">
					<defs>
						<rect id="SVGID_83_" x="1" y="83" width="234" height="29"/>
					</defs>
					<clipPath id="SVGID_84_">
						<use xlink:href="#SVGID_83_"  style="overflow:visible;"/>
					</clipPath>
					<rect x="216.8" y="80" class="st41" width="22.6" height="22.5"/>
				</g>
			</g>
		</g>
	</g>
</g>
</svg>
