<?xml version="1.0" encoding="UTF-8"?>
<svg width="400px" height="200px" viewBox="0 0 400 200" version="1.1" xmlns="http://www.w3.org/2000/svg" xmlns:xlink="http://www.w3.org/1999/xlink">
    <!-- Generator: Sketch 44.1 (41455) - http://www.bohemiancoding.com/sketch -->
    <title>logo-04</title>
    <desc>Created with Sketch.</desc>
    <defs></defs>
    <g id="layout-test" stroke="none" stroke-width="1" fill="none" fill-rule="evenodd">
        <g id="logo-04" fill="#EDEFF0">
            <g id="Page-1" transform="translate(128.000000, 41.000000)">
                <path d="M40.7763337,52.306021 C40.7084023,52.2380896 40.6412894,52.1709767 40.5062451,52.1030453 C40.9793094,47.9837841 41.5194867,43.7965916 42.464797,39.8786692 L43.1400186,39.8786692 C42.5998413,43.6607288 41.5194867,47.9837841 40.7763337,52.306021 L40.7763337,52.306021 Z M52.1904438,47.3756754 C53.0007098,45.0119905 53.4058427,43.2555958 53.4058427,41.0948866 C52.3254881,40.4867779 51.2451335,40.8919109 50.1639605,40.9598423 L50.1639605,40.6218223 C51.5823351,40.2166893 54.0810644,39.0684033 54.6891731,37.5149843 C54.8921488,37.0427384 54.7571044,36.569674 54.5541287,36.0294967 C45.9088365,40.8919109 48.8806302,39.0012904 48.8135172,41.229931 C48.8135172,42.1081283 49.1507188,44.8090148 48.7455858,46.3624338 C48.5434286,46.2953208 48.2054085,46.2273895 48.0032513,46.1602765 C47.6652312,44.1337932 46.7870339,43.6607288 46.314788,42.5132613 C46.3819009,41.3649753 46.314788,39.8107379 46.3819009,37.5829157 C48.8135172,37.4470529 52.1225124,37.9201173 55.9725034,32.8547274 C58.539164,32.3824815 61.240869,31.0312198 62.389155,28.5324906 L62.9285138,28.5324906 C62.8614009,28.8696921 63.0643766,29.2077122 62.9964452,29.5449138 C62.5241993,30.4231111 61.8489777,31.3684214 61.1729376,32.7196831 C60.2947402,34.4752593 59.34943,36.7047184 58.134031,38.6632703 C56.309705,41.5671325 54.2840401,44.6068575 52.7306211,47.3085625 C52.5276454,47.3085625 52.3254881,47.3756754 52.1904438,47.3756754 L52.1904438,47.3756754 Z M103.385338,40.3517336 C103.520383,37.6500287 103.723358,35.083368 102.911456,32.5846388 C102.034077,32.1115744 101.020835,31.7072599 100.413545,30.8961755 C98.8601258,28.8025792 96.9686868,27.1141159 94.4699576,26.1679872 L94.4699576,25.8307856 C97.5088641,25.8978985 97.9139971,26.1008742 101.155879,28.8696921 C102.574254,30.0859095 107.910551,33.7329248 108.585773,34.6111221 C108.855861,35.0162551 108.922974,35.4893194 108.990906,35.8944524 C109.12595,37.2448957 108.112708,38.933359 106.221269,39.9466006 C105.411003,40.3517336 104.600737,40.4867779 103.385338,40.3517336 L103.385338,40.3517336 Z M41.4515554,39.0012904 C40.168225,36.231654 40.5062451,34.1380577 40.7763337,31.3013085 L41.3844424,31.3013085 C41.2493981,34.1380577 41.316511,36.0294967 41.9917327,39.0012904 L41.4515554,39.0012904 Z M82.5836016,26.0329429 C82.3806258,25.8978985 81.2323398,25.4927656 80.9622512,25.3577212 C80.9622512,25.2226769 81.1644085,25.155564 81.1644085,25.0876326 C85.0815124,21.5756617 84.8114237,21.6435931 89.944745,20.8325086 C90.6199666,16.1730702 92.1733856,16.5782032 96.0225581,14.0786555 C96.9015739,12.8632565 95.8204008,11.4448819 90.9579866,9.35128563 C90.1477207,8.81110832 90.0797893,8.60813261 89.7425877,8.00002392 C90.4178093,8.06795531 92.3755428,8.67524555 94.0648246,10.0944386 C95.6853565,9.35128563 98.5892187,11.2427246 99.467416,11.6478576 C99.8733675,15.9700945 98.5221058,17.1183805 95.2802235,19.2119767 C95.4823808,22.3188147 95.1451792,22.5209719 93.9968932,24.0743909 C86.0955725,23.3320563 86.2977297,25.3577212 82.5836016,26.0329429 L82.5836016,26.0329429 Z M66.3733718,25.3577212 C67.7917464,22.3188147 71.5058746,20.967553 74.3434423,19.4820654 C77.5173932,17.1183805 78.9365863,13.7414539 80.0840539,10.1615516 C82.3126945,11.1076803 81.4344971,15.3619858 80.5562998,17.2534248 C77.3823489,20.8325086 71.1007416,24.4124109 66.3733718,25.3577212 L66.3733718,25.3577212 Z M76.16695,23.9393466 C76.2340629,23.8043023 76.2340629,23.6692579 76.2340629,23.5342136 C81.2323398,21.5085487 87.7832173,15.3619858 84.2712464,9.68930567 C81.7045858,6.85173793 78.8686549,5.23120602 77.315236,1.92139237 C77.7203689,1.85427943 78.1246835,1.78634805 78.5977478,1.92139237 C81.9746744,3.00256543 87.4460157,9.89146293 89.3374547,12.1201035 C91.093031,14.8218085 90.687898,17.2534248 88.796459,18.8739567 C85.8254838,21.5756617 79.8818966,23.8722336 76.16695,23.9393466 L76.16695,23.9393466 Z M59.4173613,22.453859 C60.3626716,21.5085487 61.240869,17.4555821 58.6742083,16.8482918 C54.0810644,16.2401831 54.5541287,15.4970301 51.8524238,11.9850592 C47.1921669,11.7149705 48.3404529,20.2923313 43.613083,21.8457503 C43.3429944,21.9136817 43.6801959,21.305573 43.4101073,21.3735044 C44.6263247,19.8871984 46.1797436,19.009001 46.5848766,17.1854934 C47.0571225,15.0918971 47.5972998,12.9983009 48.2054085,12.1201035 C48.4754972,11.5128133 49.1507188,11.1747932 49.9618032,10.9718175 C50.5690934,10.9047046 51.2451335,10.8375917 52.2575567,11.2427246 C53.2036855,11.6478576 53.6759314,11.9850592 54.9592617,12.8632565 C55.837459,13.4713652 58.2690754,13.8764982 59.34943,13.9436111 C62.5913122,14.2136998 62.8614009,14.5517198 64.0096869,17.1854934 C64.0096869,17.6585578 63.6724853,18.4688237 62.9964452,18.9418881 C62.1861792,19.4820654 61.6460019,20.7653957 61.3759133,22.453859 C60.9699619,22.5209719 59.9575386,23.0619677 59.5524057,22.9940363 C59.2814986,22.9269234 59.6866315,22.3188147 59.4173613,22.453859 L59.4173613,22.453859 Z M68.2648108,20.6974643 C69.3451654,14.0115425 77.3823489,13.0662323 73.1280434,5.56922606 C71.2366044,5.50129467 65.0229285,6.85173793 64.6169771,4.15085142 C66.1032831,4.28589574 67.5887707,4.35300868 68.9400324,4.35300868 C69.4130968,4.35300868 69.4130968,3.88076277 69.8853427,3.88076277 C74.8836196,3.88076277 79.4088322,6.24444769 77.0443289,12.5931679 C76.8421716,13.0662323 76.7750587,13.8764982 76.50497,14.4166755 C76.3691072,14.5517198 76.4370386,14.8218085 76.099837,15.0918971 C75.4917283,15.0247842 74.6127125,15.4299172 73.6682207,16.1051388 C72.9250677,17.9965778 71.7088503,19.752154 70.1554314,19.8200854 C69.3451654,20.0901741 68.8729195,20.56242 68.8049881,20.7653957 C68.6028308,20.7653957 68.4669681,20.6974643 68.2648108,20.6974643 L68.2648108,20.6974643 Z M36.3182341,63.4500424 C33.9545492,59.9380715 32.3340173,57.3714109 31.9288843,55.3449275 C31.1857313,51.900888 32.8062632,49.8744047 32.1989729,46.2953208 C30.9827555,43.4585716 29.430155,40.3517336 28.4160949,37.71796 C26.7276316,29.3427565 35.9139196,23.3320563 38.6827375,16.3081145 C41.5865997,7.39273368 41.1143538,10.6346159 41.9246197,8.54020122 C41.9917327,8.33804396 41.8566883,8.33804396 41.8566883,8.06795531 C38.1417417,8.60813261 35.6438309,9.48632995 34.0895935,10.8375917 C29.5643809,14.6196512 31.8609529,21.305573 26.795563,28.1944705 C21.6622417,31.7743728 21.5271974,34.1380577 21.9331488,37.1777827 C22.2703504,40.0137136 23.6216121,42.9855072 25.3100754,46.0252322 C26.39043,48.0508971 27.8088047,50.0773804 28.4840263,52.3739524 C26.1874543,50.6854891 23.7566565,47.0376554 21.6622417,43.4585716 C19.0963995,39.1363347 18.0831579,34.340215 19.2985568,30.6931998 C23.4865678,25.5606969 25.0391683,20.7653957 25.9173657,16.3752275 C26.5254744,13.4034338 27.538716,11.0397489 30.0374453,9.28417269 C31.5908642,8.20299963 34.4276135,7.12264503 38.0075158,6.10940336 C41.316511,5.0961617 45.2336149,4.21796436 48.1382956,2.3273438 C52.2575567,-0.239316837 54.351153,-0.104272512 56.0396163,0.0978847511 C58.2690754,0.503836178 61.5101392,2.12436808 63.2665339,2.93545249 C63.2665339,3.13760975 63.3344652,3.4076984 63.3344652,3.61067412 C58.201144,0.908969155 56.1075477,1.04401348 50.7041378,3.74489999 C50.6370248,4.01580709 50.7041378,4.28589574 50.7041378,4.55598439 C55.3652131,4.55598439 57.2558337,5.77220177 61.3759133,8.1358867 C63.4695096,7.32480229 68.0618351,10.4316402 69.2780525,11.5799262 C69.6152541,12.3901922 70.2904757,12.9983009 69.9532741,13.7414539 C69.1430081,15.6320744 68.6028308,18.8068438 66.9814805,20.3602627 C65.3609486,21.9136817 64.3477069,23.264125 64.1447312,25.0876326 C63.9417555,25.0876326 63.7395982,24.9525883 63.6045539,24.9525883 C64.4827512,19.2790897 69.2780525,15.7671188 64.2126626,11.0397489 C54.4190844,3.00256543 46.9220782,3.88076277 43.1400186,11.9179463 C42.7348857,12.9311879 42.059664,13.8764982 41.7895754,15.0247842 C41.316511,16.7803604 41.2493981,19.1440454 40.9793094,21.2384601 C34.3605006,36.9068756 30.8477112,31.5713971 37.1293185,47.4436068 C37.2643628,49.4692717 37.4673385,51.4278237 36.9263428,53.049174 C35.5758995,57.4385238 34.5626578,59.4658256 36.6562541,63.4500424 L36.3182341,63.4500424 Z M72.1819147,61.3564462 C71.9797574,61.2893332 71.573806,61.0184261 71.3708303,60.9513132 C72.316959,59.1949185 74.1404666,58.9248299 74.4776682,56.3589877 C74.8156883,54.19746 75.9647927,53.1842183 77.7874819,52.711154 C78.6648608,52.4410653 79.3409008,52.1709767 80.2870296,51.7658437 C81.2323398,51.0226907 81.7725172,50.2124247 81.8396301,49.3342274 C81.8396301,48.3209857 81.8396301,47.1735182 81.7725172,46.2273895 C80.0169409,43.8637045 75.761817,40.2846207 76.099837,37.1098514 C77.3823489,38.123093 77.7874819,39.2034476 83.8661134,41.0948866 C86.2306168,42.3782169 88.1212374,44.3367689 86.5678184,46.4974781 C83.2588232,48.45603 82.5836016,49.5372031 82.2447631,52.4410653 C82.0426058,53.85944 81.7045858,55.4799719 80.9622512,56.6961893 C79.4088322,59.3978942 76.2340629,61.4235591 72.1819147,61.3564462 L72.1819147,61.3564462 Z M68.7378752,55.4799719 L68.7378752,43.1205515 C68.5348994,43.1205515 68.3998551,43.1884829 68.1968794,43.1884829 C65.3609486,46.2273895 63.1994209,47.9837841 62.5241993,53.3863756 C61.240869,53.2513313 60.2276273,52.711154 59.2143856,52.3739524 C58.877184,50.009449 60.7678046,48.9970258 62.6592436,47.0376554 C64.2126626,45.4850549 65.6981502,43.6607288 67.2515691,41.973084 C69.7502984,39.3384919 71.5058746,36.636787 72.0468704,35.5564324 C72.2498461,35.6235453 72.722092,35.6235453 72.8571363,35.7594081 C73.060112,41.4320882 75.8968613,44.2688375 76.3019943,45.4171235 C76.2340629,45.8901879 76.0319056,46.0923451 75.761817,46.5654095 C75.2887526,47.3085625 74.0725352,47.9158527 72.7900234,48.8619815 C70.830653,52.5089967 70.830653,52.5089967 69.4130968,55.4128589 C69.2101211,55.4128589 69.0079638,55.4799719 68.7378752,55.4799719 L68.7378752,55.4799719 Z M3.35923415,110.794946 C1.4006822,108.498374 3.42716553,106.135508 5.85796339,105.796669 C7.81733379,105.52658 9.64084141,104.446226 10.1810187,104.986403 C9.978043,105.121447 9.77588573,105.391536 9.36993431,105.593693 C8.29039815,106.135508 6.73697919,106.810729 5.92589478,108.36333 C5.58787474,108.971438 5.11562883,109.714591 4.71049585,110.119724 C4.17031855,110.592789 3.56220986,110.727833 3.35923415,110.794946 L3.35923415,110.794946 Z M8.29039815,117.211598 C7.14211216,116.67142 6.06093911,115.927449 4.91265311,115.455203 C3.49427847,114.847094 2.14383522,114.374848 1.26563788,113.631695 C-0.489938357,111.943232 -0.557051294,109.647479 1.9408595,106.269733 C2.88698823,104.986403 4.77842724,103.973161 6.46689053,104.041093 C7.41220081,104.041093 8.01949105,103.63596 7.95237811,103.095783 C6.80409212,103.162896 5.65580613,103.230827 4.50752014,103.365871 L4.50752014,102.757763 C10.1139058,100.259033 12.274615,101.474432 15.719473,102.757763 C16.1917189,102.960738 16.7998276,102.757763 17.4079363,102.960738 C18.8263109,102.69065 23.4186364,101.001368 25.1750311,100.191102 C31.6579772,95.7338207 37.8724715,89.8581649 44.423349,84.454755 C46.7199209,82.6312474 48.9485615,80.5376511 51.4472908,79.0521635 C53.0686411,78.0381034 54.7571044,77.1607245 56.242592,76.1474828 C57.1207894,75.5393741 57.8631239,74.6611768 58.6742083,74.0538866 C61.3079819,72.1624476 64.2797755,70.7440729 67.1165248,69.3265167 C68.6699438,68.5833637 70.0883184,67.5693036 71.7088503,66.894082 C71.6409189,66.7590376 71.573806,66.6239933 71.573806,66.421836 C68.2648108,67.1641706 57.8631239,69.5957869 56.3776363,72.9056006 C56.242592,72.9056006 56.1746606,73.1756892 55.9725034,72.9056006 C55.9053904,72.8384876 55.9725034,72.5004676 55.9053904,72.3654233 C56.647725,71.6222703 57.3229466,70.5419156 58.6062769,68.8534524 C59.8896073,67.7722793 61.3759133,67.0291263 62.1861792,66.488949 C62.1861792,66.421836 61.984022,66.2188603 61.984022,66.1517474 C56.9178136,67.7043479 54.8921488,70.2038956 53.6759314,73.7829795 C53.3387298,74.7962211 51.7173794,75.1342412 50.1639605,75.3372169 C45.3015463,75.8102812 43.613083,76.1474828 40.7763337,77.9030591 C40.3712007,78.1731477 40.2361564,78.7820749 39.7630921,79.0521635 C39.4930034,79.2543208 39.2229148,79.3893651 38.9528261,79.5923408 C38.9528261,79.3222522 38.6827375,79.2543208 38.8177818,78.9842321 C40.3712007,76.5526158 42.464797,74.1209995 44.2883046,72.0274032 C47.3272112,69.6637183 50.9071135,68.0431864 51.5152222,66.5568804 C47.2600982,66.826969 42.464797,68.1111178 40.0331807,71.758133 C39.8310234,71.825246 39.6280477,71.825246 39.4258905,71.8923589 C40.4383137,67.8393922 43.6801959,64.6662598 48.0032513,63.4500424 C48.6105415,63.2470667 48.8135172,62.7748208 49.4216259,62.5718451 C50.1639605,59.1949185 49.1507188,58.0466325 47.4622555,57.7765439 C45.0314577,56.7633022 42.2618213,57.0342093 41.1143538,53.85944 C43.0049743,53.7915086 43.6801959,53.5214199 44.423349,52.2380896 C44.6934376,51.6979123 45.9088365,51.968001 47.2600982,52.644041 C48.0703642,52.644041 48.6784729,52.5089967 49.4887388,52.5089967 C49.4216259,52.8461983 49.4216259,53.1842183 49.3536945,53.5214199 C48.3404529,53.9265529 47.5301869,54.5346616 46.7199209,55.2107017 C46.6519896,55.4128589 46.6519896,55.6829476 46.6519896,55.9530362 C52.1904438,59.5329385 55.3652131,59.8709586 59.7545629,56.4932135 C60.1605144,54.602593 59.7545629,53.7243956 58.4041197,53.454307 C56.7827693,53.9944843 54.1489958,55.6829476 52.0553995,55.6150162 C52.1225124,55.3449275 52.1225124,55.1427703 52.1904438,54.9397946 C54.4861973,54.5346616 56.1746606,50.752602 58.4041197,46.4974781 C60.5648289,42.4453299 63.2665339,37.8530044 65.9011259,34.0709448 C67.7917464,31.5034657 69.4810282,29.1397808 71.3708303,27.7893375 C71.4387617,27.5871803 71.573806,27.3842046 71.7088503,27.2491602 L72.2498461,27.2491602 C72.2498461,27.8564505 72.0468704,30.6931998 73.3973136,30.6931998 C73.465245,30.3559982 73.5331764,30.0859095 73.5331764,29.7478895 L75.0178455,29.7478895 C79.4088322,36.7047184 81.9075615,36.4346297 89.2695233,39.4735363 C95.2122921,44.1337932 91.6332083,47.5107198 88.6614147,50.3474691 C88.3233946,50.6854891 88.1883503,51.2256664 87.9182616,51.6307994 C87.9182616,52.1030453 87.986193,52.7790854 87.8511487,53.454307 C87.1759271,56.0209676 85.351601,59.3307813 85.6216897,60.5461802 C89.4724991,59.8709586 92.1054542,58.9919428 94.5370705,58.0466325 C98.3870614,56.4932135 102.169121,57.1013222 108.720817,57.3714109 L108.720817,57.7094309 C105.546048,58.1145639 102.372097,58.5868098 99.0622831,59.4658256 C93.6596916,60.8833818 88.1883503,63.1120224 83.1237789,65.0034614 C78.4627035,66.7590376 74.0725352,69.3265167 69.7502984,71.825246 C63.537441,75.4722612 57.7288981,79.3222522 52.797734,83.239356 C44.2203732,91.4786968 36.9934557,97.827417 28.2139376,102.149654 C23.5536807,104.379113 18.5562222,106.202621 12.612635,107.147931 C10.3839944,107.891084 8.55966835,109.106483 7.95237811,110.457744 C7.54642669,111.335123 8.01949105,112.618454 8.83057546,114.036828 C10.316063,114.10476 10.0459744,111.200079 11.3293047,109.106483 C11.7344377,108.70135 12.612635,108.566305 13.422901,108.36333 C15.9216302,108.36333 17.9481136,108.566305 19.8387341,108.228285 C21.1220644,108.026128 22.3382818,107.282975 23.8917008,107.012886 C23.8917008,107.080818 23.8917008,107.215862 23.8237694,107.350907 C20.1096412,108.70135 16.7998276,109.849636 13.017768,110.592789 C12.7476793,111.26801 12.4096593,112.010345 12.8147923,112.483409 C13.4908324,113.024405 14.6382999,112.550522 16.1917189,112.685567 C23.4186364,114.779981 28.0788933,113.091518 30.1724896,111.403055 C34.0224805,107.012886 37.4673385,103.973161 40.8442651,101.474432 C43.0049743,99.8539003 45.0314577,98.23255 47.4622555,97.1521954 C52.5955768,94.787692 58.877184,93.7073374 67.3866135,92.5598699 C68.6699438,92.2226683 69.5481411,92.085987 70.3584071,91.3436525 C70.9656973,90.8705881 71.168673,90.1282536 71.4387617,89.5201449 C72.1819147,87.7637502 72.316959,86.4133069 72.9250677,85.1299766 C74.0725352,82.6991787 75.9647927,80.8748527 80.6242312,79.3222522 C84.0690891,78.2410791 90.6199666,78.8491878 95.2802235,78.1731477 C96.0904895,78.1060348 96.9686868,78.2410791 97.6447269,78.0381034 C98.3870614,77.7680147 98.7921944,77.2278374 99.2644403,76.8898174 C102.911456,71.5551573 107.775507,65.4085944 113.854138,62.2346435 C115.541783,61.4235591 117.163133,60.6812245 118.986641,60.3432045 C118.91871,60.6812245 119.053754,60.6132931 118.986641,60.8833818 C118.648621,61.2893332 118.108444,61.6944662 117.703311,62.2346435 C115.676827,64.8684171 113.313142,68.8534524 115.609714,72.4325362 C115.609714,72.5004676 115.676827,73.0406449 115.204581,73.2428022 C113.448187,73.9859552 112.097744,77.1607245 112.097744,79.5923408 C109.328107,84.2517793 103.047318,86.8184399 95.2802235,85.8731296 C91.0250996,85.3329523 86.5678184,85.3329523 84.0690891,86.5483513 C83.0558475,87.0214156 82.7857588,87.8987945 82.3806258,88.7098789 C82.1776501,89.9252778 81.8396301,92.4919385 81.1644085,93.4372488 C80.1519852,94.787692 78.7327922,95.5987764 77.1122602,96.4090424 C75.2887526,97.2872397 73.465245,98.2996629 71.168673,98.637683 C67.6567021,99.2457917 63.537441,98.8406587 60.1605144,98.8406587 C58.2690754,99.1786787 51.4472908,101.406501 46.5848766,104.176137 C43.4780387,105.999645 40.8442651,108.633418 41.0464224,110.3227 C41.0464224,110.659902 41.5194867,110.389813 41.721644,110.659902 C47.1921669,110.187656 52.8656654,109.917567 57.9981683,110.187656 C75.3558656,107.215862 92.3755428,103.433803 111.557566,106.945774 C122.228523,107.282975 132.967412,108.026128 143.840526,108.768463 L143.840526,109.106483 C142.625127,109.106483 141.47766,108.903507 140.328555,109.106483 C138.505866,109.376571 137.762713,109.782523 134.925964,109.782523 C121.418257,109.444503 104.128491,108.36333 92.0383412,111.673143 C92.1054542,111.875301 92.1054542,112.078276 92.1733856,112.348365 C105.275959,112.618454 118.513577,114.10476 131.61615,114.441961 L131.61615,114.779981 C130.67084,114.779981 129.657598,114.847094 128.644356,114.915026 C127.023006,114.982139 125.672563,115.387272 123.916987,115.522316 C121.755459,115.65736 117.433222,115.387272 115.13665,115.455203 C113.448187,115.590247 112.569989,115.99538 111.422522,116.130425 C110.342167,116.332582 108.922974,116.197538 107.370374,116.265469 C87.8511487,116.130425 88.1212374,115.387272 85.1494437,116.265469 C85.4195324,116.468445 85.6216897,116.468445 85.8925968,116.941509 C79.3409008,116.941509 72.5870477,117.143666 66.1032831,117.076553 C64.4148198,116.401332 62.3212236,116.67142 60.3626716,116.67142 C54.2161087,115.05007 45.9088365,114.577006 39.2229148,116.265469 C34.9677908,115.860336 31.5908642,116.332582 30.8477112,116.738533 C29.2942923,117.008622 28.0788933,116.603489 26.7276316,116.873578 C22.7434148,117.548799 20.1767542,116.738533 16.7327146,115.927449 C13.5579453,115.927449 11.1942604,116.401332 8.29039815,117.211598 L8.29039815,117.211598 Z M91.3631196,57.5064552 L91.3631196,56.9662779 C92.2404985,56.5611449 92.2404985,56.3589877 92.1054542,55.4799719 C95.3473364,54.2645729 97.2387755,51.0226907 98.7921944,48.1859414 C99.3323717,46.7004538 100.345613,44.6739705 99.3323717,42.6483056 C96.5635538,37.0427384 92.1733856,36.3666983 89.7425877,31.3013085 C88.391326,28.3974462 86.0276411,29.7478895 84.541335,30.2209538 C82.7857588,30.1530225 76.4370386,28.3974462 76.0319056,26.7760959 C77.1801916,26.5739386 79.0036993,26.3030315 80.9622512,26.1008742 C84.4742221,26.7760959 87.58106,26.7760959 88.7285276,25.7628542 C92.1733856,25.7628542 93.3896029,27.2491602 94.2669818,28.8025792 C96.2263522,34.9483237 96.0225581,35.3542751 101.223811,39.0012904 C103.250294,40.9598423 103.790471,43.2555958 103.588314,45.4850549 C103.183181,51.2256664 96.8336425,56.5611449 91.3631196,57.5064552 L91.3631196,57.5064552 Z" id="Fill-1"></path>
            </g>
        </g>
    </g>
</svg>