<?xml version="1.0" encoding="UTF-8"?>
<svg width="400px" height="200px" viewBox="0 0 400 200" version="1.1" xmlns="http://www.w3.org/2000/svg" xmlns:xlink="http://www.w3.org/1999/xlink">
    <!-- Generator: Sketch 44.1 (41455) - http://www.bohemiancoding.com/sketch -->
    <title>logo-01</title>
    <desc>Created with Sketch.</desc>
    <defs></defs>
    <g id="layout-test" stroke="none" stroke-width="1" fill="none" fill-rule="evenodd">
        <g id="logo-01" fill="#221F20">
            <g id="Page-1" transform="translate(100.000000, 85.000000)">
                <path d="M109.154658,13.7749068 C109.154658,13.7749068 107.21677,12.5773913 106.019255,12.1140373 C106.019255,12.1140373 102.312422,10.3960248 101.575776,9.57863354 C101.575776,9.57863354 100.13354,8.21714286 100.978261,6.6357764 C100.978261,6.6357764 101.332298,5.60223602 102.859006,5.60223602 C102.859006,5.60223602 104.845342,5.7115528 104.845342,7.34509317 L104.845342,9.64944099 L111.969565,9.64944099 L111.957143,6.25565217 C111.957143,6.25565217 112.503727,0.696645963 103.565839,0.453167702 C103.565839,0.453167702 96.5372671,-0.0101863354 94.521118,3.7773913 C94.521118,3.7773913 93.7298137,4.62086957 93.7298137,7.56372671 L93.7298137,9.68795031 C93.7298137,9.68795031 93.6490683,12.1413665 94.9012422,13.7202484 C94.9012422,13.7202484 95.610559,14.7562733 97.3546584,15.8991304 C97.3546584,15.8991304 100.896273,17.8059627 103.021739,18.8978882 C103.021739,18.8978882 105.167081,20.1227329 104.883851,22.0718012 C104.883851,22.0718012 104.71118,24.070559 102.637888,23.9910559 C102.637888,23.9910559 100.743478,23.9028571 100.743478,21.9426087 L100.743478,19.6407453 L93.1534161,19.6407453 L93.1534161,22.986087 C93.1534161,22.986087 92.9397516,29.3836025 102.695031,29.3836025 C102.695031,29.3836025 112.013043,29.5736646 112.447826,22.8159006 L112.447826,20.0941615 C112.447826,20.0941615 112.775776,15.9550311 109.154658,13.7749068" id="Fill-1"></path>
                <polygon id="Fill-3" points="72.6875776 1.24881988 70.3024845 16.1954037 69.7447205 16.1954037 67.4664596 1.38298137 55.5670807 1.38298137 54.9720497 28.4475776 62.0167702 28.4475776 62.1012422 8.05503106 62.6552795 8.05503106 66.389441 28.4450932 73.8006211 28.4450932 77.4888199 8.06248447 77.9795031 8.06248447 78.1496894 28.4475776 85.231677 28.4475776 84.4689441 1.24881988"></polygon>
                <polygon id="Fill-5" points="30.7524224 1.36099379 26.0654658 28.4181366 33.6493168 28.4181366 36.424472 7.43925466 37.0480745 7.43925466 39.824472 28.4181366 47.4070807 28.4181366 42.7213665 1.36099379"></polygon>
                <path d="M189.885466,13.4024845 L189.885466,17.3937888 L191.829565,17.3937888 L191.829565,21.6782609 C191.829565,23.7726708 190.040745,23.8111801 190.040745,23.8111801 C187.863106,23.8111801 187.945093,21.821118 187.945093,21.821118 L187.945093,7.00124224 C187.945093,5.47453416 189.87677,5.39254658 189.87677,5.39254658 C191.731429,5.39254658 191.745093,7.2136646 191.745093,7.2136646 L191.745093,9.46708075 L198.884224,9.46708075 C199.117764,5.06956522 198.241988,4.00496894 198.241988,4.00496894 C196.470559,0.0260869565 189.769938,0.244720497 189.769938,0.244720497 C179.471801,0.244720497 180.614658,8.14534161 180.614658,8.14534161 L180.614658,22.4745342 C180.835776,29.884472 190.981118,29.131677 191.153789,29.1217391 C195.666832,28.6223602 197.030807,27.1913043 197.030807,27.1913043 C198.285466,26.2596273 198.608447,24.9689441 198.608447,24.9689441 C198.967453,24.2161491 199.056894,21.821118 199.056894,21.821118 L199.056894,13.4024845 L189.885466,13.4024845 Z" id="Fill-7"></path>
                <polygon id="Fill-10" points="166.217391 17.806087 165.906832 17.806087 158.658385 1.25453416 149.991304 1.25453416 149.991304 28.4520497 157.045963 28.4520497 156.623602 11.9042236 156.937888 11.9042236 164.44472 28.4520497 172.853416 28.4520497 172.853416 1.25329193 165.709317 1.25329193"></polygon>
                <path d="M132.766832,21.6759006 C132.766832,21.6759006 132.868696,23.9081988 130.800373,23.9081988 C130.800373,23.9081988 128.621491,24.0249689 128.621491,21.7318012 L128.600373,1.27217391 L120.861242,1.27217391 L120.861242,21.5690683 C120.861242,21.5690683 120.066211,29.2510559 130.907205,29.2510559 C130.907205,29.2510559 140.329565,29.3616149 140.329565,21.9206211 L140.329565,1.27217391 L132.766832,1.27217391 L132.766832,21.6759006 Z" id="Fill-12"></path>
                <path d="M15.9978882,13.7742857 C15.9978882,13.7742857 14.0637267,12.5767702 12.8649689,12.1146584 C12.8649689,12.1146584 9.16062112,10.3978882 8.42521739,9.57925466 C8.42521739,9.57925466 6.98049689,8.2152795 7.82645963,6.63763975 C7.82645963,6.63763975 8.17925466,5.60285714 9.7047205,5.60285714 C9.7047205,5.60285714 11.6935404,5.71093168 11.6935404,7.34447205 L11.6935404,9.65006211 L18.8190062,9.65006211 L18.8053416,6.25378882 C18.8053416,6.25378882 19.349441,0.696024845 10.4140373,0.452546584 C10.4140373,0.452546584 9.74198758,0.409068323 8.7531677,0.458757764 C8.7531677,0.458757764 3.34198758,0.749440994 1.40658385,3.71838509 C1.39540373,3.73950311 1.37925466,3.75689441 1.36931677,3.77677019 C1.36931677,3.77677019 0.578012422,4.62024845 0.578012422,7.56310559 L0.578012422,9.68857143 C0.578012422,9.68857143 0.496024845,12.1395031 1.75068323,13.7196273 C1.75068323,13.7196273 2.45875776,14.7568944 4.20285714,15.8985093 C4.20285714,15.8985093 7.74198758,17.8065839 9.86745342,18.8960248 C9.86745342,18.8960248 12.0152795,20.1208696 11.7320497,22.0711801 C11.7320497,22.0711801 11.5581366,24.0711801 9.48732919,23.9904348 C9.48732919,23.9904348 7.59167702,23.9034783 7.59167702,21.9432298 L7.59167702,19.6376398 L0.000372670807,19.6376398 L0.000372670807,22.9867081 C0.000372670807,22.9867081 -0.212049689,29.3842236 9.54074534,29.3842236 C9.54074534,29.3842236 18.8575155,29.5730435 19.2960248,22.8165217 L19.2960248,20.0935404 C19.2960248,20.0935404 19.6214907,15.9544099 15.9978882,13.7742857" id="Fill-14"></path>
            </g>
        </g>
    </g>
</svg>