<?xml version="1.0" encoding="UTF-8"?>
<svg width="400px" height="200px" viewBox="0 0 400 200" version="1.1" xmlns="http://www.w3.org/2000/svg" xmlns:xlink="http://www.w3.org/1999/xlink">
    <!-- Generator: Sketch 44.1 (41455) - http://www.bohemiancoding.com/sketch -->
    <title>logo-03</title>
    <desc>Created with Sketch.</desc>
    <defs></defs>
    <g id="layout-test" stroke="none" stroke-width="1" fill="none" fill-rule="evenodd">
        <g id="logo-03" fill="#000000">
            <g id="Page-1" transform="translate(126.000000, 71.000000)">
                <path d="M146.606333,20.8881536 C146.606333,20.5905884 146.383643,20.4804725 146.086723,20.4804725 L145.456611,20.4804725 L145.456611,21.2958348 L146.086723,21.2958348 C146.383643,21.2958348 146.606333,21.1831971 146.606333,20.8881536 M147.087985,20.8511681 C147.087985,21.2958348 146.680563,21.5917188 146.420758,21.6287043 L147.125944,22.8147623 L146.606333,22.8147623 L145.938263,21.6656899 L145.456611,21.6656899 L145.456611,22.8147623 L144.972428,22.8147623 L144.972428,20.0349652 L146.160953,20.0349652 C146.717678,20.0349652 147.087985,20.4056609 147.087985,20.8511681" id="Fill-1"></path>
                <path d="M145.958929,23.3508 C147.020925,23.3508 147.881319,22.4917275 147.881319,21.4300754 C147.881319,20.3717855 147.020925,19.5110319 145.958929,19.5110319 C144.896933,19.5110319 144.036539,20.3717855 144.036539,21.4300754 C144.036539,22.4917275 144.896933,23.3508 145.958929,23.3508 M143.67045,21.4300754 C143.67045,20.1692058 144.696174,19.1462203 145.958929,19.1462203 C147.223371,19.1462203 148.247408,20.1692058 148.247408,21.4300754 C148.247408,22.6926261 147.223371,23.7164522 145.958929,23.7164522 C144.696174,23.7164522 143.67045,22.6926261 143.67045,21.4300754" id="Fill-3"></path>
                <path d="M26.4042272,24.6670638 C26.4042272,23.5701072 24.9035988,22.4739913 23.5109415,22.4739913 C20.9474734,22.4739913 19.3009154,24.4838174 19.3009154,27.3350638 C19.3009154,30.1871507 20.9474734,32.2348029 23.5109415,32.2348029 C24.9035988,32.2348029 26.4042272,31.1378464 26.4042272,30.0400493 L26.4042272,24.6670638 Z M50.6133531,22.4739913 C50.6133531,24.6309188 48.8917216,26.3482232 46.7314578,26.3482232 C45.7057331,26.3482232 44.8630531,25.470658 44.8630531,24.4838174 C44.8630531,23.5322812 45.3750719,23.514629 45.3750719,22.8749478 C45.3750719,22.3991797 44.9727112,21.9973826 44.4961204,21.9973826 C43.6913989,21.9973826 43.068035,22.618571 43.068035,23.4230058 L43.068035,33.4418754 C43.068035,33.6242812 43.2223998,33.7301942 43.3615812,33.7713826 L44.3510343,34.0622232 C44.4885286,34.1034116 44.6800085,34.2093246 44.6800085,34.3917304 L44.6800085,35.1970058 C44.6800085,35.3794116 44.5332354,35.5248319 44.3510343,35.5248319 L37.9782139,35.5248319 C37.7951693,35.5248319 37.6483962,35.3794116 37.6483962,35.1970058 L37.6483962,30.6763681 C35.8466299,32.536571 32.199234,36.0375855 30.2987755,36.0375855 C28.1992454,36.0375855 28.4683294,33.7713826 26.880818,33.7713826 C25.501657,33.7713826 25.4156176,36.0375855 21.5708373,36.0375855 C17.4325108,36.0375855 14.0634777,32.162513 14.0634777,27.3350638 C14.0634777,22.5454406 17.4325108,18.6333826 21.5708373,18.6333826 C24.9516797,18.6333826 25.7218167,20.4624841 26.5510003,20.4624841 C27.0638627,20.4624841 27.2823353,20.0590058 27.3936804,19.4748029 C27.4282648,19.2915565 27.576725,19.1461362 27.7951976,19.1461362 L33.1068654,19.1461362 C33.28991,19.1461362 33.4358396,19.2923971 33.4358396,19.4748029 L33.4358396,20.2800783 C33.4358396,20.4624841 33.2511079,20.5658754 33.1068654,20.6087449 L32.1174123,20.9004261 C31.9731697,20.9432957 31.8255531,21.046687 31.8255531,21.2290928 L31.8255531,30.0778754 C31.8255531,30.6629188 32.3746869,31.1378464 32.9600923,31.1378464 C34.022932,31.1378464 36.3004455,29.2599913 37.6483962,28.0596435 L37.6483962,21.8141362 C37.6483962,21.4123391 37.3421971,21.2290928 37.0123794,21.2290928 C36.6091752,21.2290928 36.5931482,21.5955855 36.0743812,21.5955855 C35.5977904,21.5955855 35.3042442,21.1937884 35.3042442,20.8272957 C35.3042442,20.1329768 36.5501285,18.6333826 38.4910762,18.6333826 C41.8466129,18.6333826 41.3286894,21.1214986 42.5189012,21.1214986 C43.5994548,21.1214986 43.783343,18.6333826 46.7314578,18.6333826 C48.8917216,18.6333826 50.6133531,20.3162232 50.6133531,22.4739913 L50.6133531,22.4739913 Z" id="Fill-5"></path>
                <path d="M52.2894344,30.0590464 C52.2894344,34.3191043 55.531939,35.5253362 57.6964204,35.5253362 L68.8216525,35.5253362 C71.3429444,35.5253362 73.746143,33.6962348 73.746143,30.7323507 C73.746143,26.253742 66.8292499,26.6572203 66.8292499,24.0867275 C66.8292499,23.0444087 67.8465393,22.673713 69.1084505,22.673713 C70.0574145,22.673713 71.3572843,23.0940029 72.0877757,23.6328145 C72.3425198,23.8202638 72.5424349,23.6370174 72.6040121,23.4949594 L74.3104603,19.5904667 C74.3846903,19.4223507 74.2961204,19.1491623 74.01354,19.1491623 L66.0236849,19.1491623 C63.8431765,19.1491623 61.9123511,21.0295391 61.9123511,23.3495391 C61.9123511,27.9609594 67.9190823,27.1447565 67.9190823,30.2708725 C67.9190823,31.483829 66.9507173,32.5202638 65.6052972,32.5202638 C62.9524156,32.5202638 61.8355905,30.7474812 61.7132796,29.727858 C61.6913479,29.5303217 61.4382909,29.3916261 61.2619945,29.4622348 L60.1620397,29.8976551 C59.9520024,29.9808725 59.9123568,30.271713 60.0253889,30.4120899 C60.2151817,30.6449304 60.3231527,30.8727275 60.3231527,31.2366986 C60.3231527,31.9436261 59.7664272,32.5454812 59.007256,32.5454812 C58.2480848,32.5454812 57.7090733,31.9032783 57.7090733,31.2366986 L57.7090733,8.2871913 C57.7090733,8.10394493 57.5631437,7.95768406 57.3800991,7.95768406 L51.0081222,7.95768406 C50.8250776,7.95768406 50.6783045,8.10394493 50.6783045,8.2871913 L50.6783045,9.09078551 C50.6783045,9.27403188 50.8689408,9.37826377 51.0081222,9.41945217 L51.9967318,9.71197391 C52.1359132,9.75316232 52.2894344,9.85823478 52.2894344,10.0414812 L52.2894344,30.0590464 Z" id="Fill-7"></path>
                <path d="M135.026864,24.6670638 C135.026864,23.5701072 133.526235,22.4739913 132.134421,22.4739913 C129.570953,22.4739913 127.922708,24.4838174 127.922708,27.3350638 C127.922708,30.1871507 129.570953,32.2348029 132.134421,32.2348029 C133.526235,32.2348029 135.026864,31.1378464 135.026864,30.0400493 L135.026864,24.6670638 Z M142.05932,19.4748029 L142.05932,20.2800783 C142.05932,20.4624841 141.872901,20.5658754 141.729502,20.6087449 L140.740049,20.9004261 C140.59665,20.9432957 140.44819,21.046687 140.44819,21.2290928 L140.44819,38.0474116 C140.44819,42.1443971 136.986369,45.4344261 132.903715,45.4344261 C130.120931,45.4344261 127.665434,44.1542232 126.421236,42.0334406 C124.73672,45.0309478 119.28081,51.4664261 103.384608,51.4664261 C94.6330514,51.4664261 79.7642618,47.1517304 72.0375861,47.1517304 C61.4243727,47.1517304 54.4197532,50.0231507 47.1350838,57.3160203 C46.9689096,57.4824551 46.8339459,57.5303681 46.6112557,57.4093246 L33.0355876,50.004658 C32.8609783,49.9096725 32.7833741,49.6432087 32.9622011,49.4927449 C41.9381352,41.8930638 54.9351461,37.9751217 64.1270222,37.9751217 C82.1092572,37.9751217 94.6330514,46.8600493 109.393026,46.8600493 C121.844278,46.8600493 125.468055,40.6439623 125.468055,38.5601652 C125.468055,38.3416145 125.652786,38.230658 125.798716,38.230658 L127.043757,38.230658 C127.19053,38.230658 127.373575,38.3416145 127.373575,38.5601652 C127.373575,40.6439623 129.094363,42.2158464 131.25547,42.2158464 C133.416577,42.2158464 135.026864,40.534687 135.026864,38.2684841 L135.026864,35.0515855 C135.026864,34.6867739 134.844663,34.466542 134.459172,34.466542 C133.893168,34.466542 133.343191,36.0375855 130.193474,36.0375855 C126.055147,36.0375855 122.686114,32.162513 122.686114,27.3350638 C122.686114,22.5454406 126.055147,18.6333826 130.193474,18.6333826 C133.57516,18.6333826 134.34361,20.4624841 135.17448,20.4624841 C135.686499,20.4624841 135.904972,20.0590058 136.016317,19.4748029 C136.051745,19.2915565 136.199361,19.1461362 136.418678,19.1461362 L141.729502,19.1461362 C141.911703,19.1461362 142.05932,19.2923971 142.05932,19.4748029 L142.05932,19.4748029 Z" id="Fill-9"></path>
                <path d="M102.981994,23.5700232 C102.981994,23.0942551 102.836065,21.8888638 101.297478,21.8888638 C99.4670318,21.8888638 97.5260841,24.0819362 97.5260841,27.7746029 C101.077318,27.7746029 102.981994,24.9586609 102.981994,23.5700232 M124.151061,18.268487 C124.151061,21.632487 122.027069,23.4229217 120.268323,23.4229217 C118.18735,23.4229217 118.474992,21.9972986 117.120293,21.9972986 C116.313884,21.9972986 115.581706,22.6193275 115.581706,23.4229217 L115.581706,33.4417913 C115.581706,33.6241971 115.735227,33.7301101 115.875252,33.7712986 L116.863018,34.0621391 C117.002199,34.1033275 117.191992,34.2092406 117.191992,34.3916464 L117.191992,35.1969217 C117.191992,35.3793275 117.046906,35.5255884 116.863018,35.5255884 L110.491041,35.5255884 C110.307153,35.5255884 110.162067,35.3793275 110.162067,35.1969217 L110.162067,23.5700232 C110.162067,22.656313 109.574131,22.2536754 108.842796,22.2536754 C108.169664,22.2536754 107.11779,22.8513275 106.167139,23.5061391 C106.096283,27.1029797 102.853779,29.8214145 97.8179433,29.8214145 C97.8179433,30.5165739 99.3936453,33.0752986 102.507934,33.0752986 C104.336693,33.0752986 105.710793,32.4179652 106.662288,31.1747478 C107.098389,30.6056754 108.142672,30.8301101 107.651741,31.9615304 C107.175994,33.0576464 104.997172,36.0375014 100.566143,36.0375014 C96.3991367,36.0375014 92.8951398,33.1417043 92.0465551,29.1935014 C91.0410751,28.8950957 90.0313774,28.4210087 89.2857026,27.9385159 L89.2857026,30.9915014 C89.2857026,33.5880522 87.491528,35.5255884 84.6724723,35.5255884 L82.0356176,35.5255884 C78.1528787,35.5255884 75.7361838,33.3686609 75.7361838,30.0038203 L75.7361838,10.0408928 C75.7361838,9.85848696 75.5877236,9.75509565 75.4426376,9.71222609 L74.4548715,9.41970435 C74.3097854,9.37683478 74.1242103,9.27428406 74.1242103,9.0901971 L74.1242103,8.2866029 C74.1242103,8.1041971 74.2709834,7.95793623 74.4548715,7.95793623 L80.8260049,7.95793623 C81.0090495,7.95793623 81.1558226,8.1041971 81.1558226,8.2866029 L81.1558226,30.480429 C81.1558226,32.0892986 82.730681,32.7836174 83.8669073,32.7836174 C85.110261,32.7836174 86.5754614,32.3086899 86.5754614,30.5897043 L86.5754614,26.2018783 L84.3780825,24.8855304 C84.0820058,24.7090087 83.8669073,24.4837333 83.8669073,24.0449507 L83.8669073,19.4738783 C83.8669073,19.2914725 84.0128368,19.1452116 84.1958815,19.1452116 L88.9567284,19.1452116 C89.1389295,19.1452116 89.2857026,19.2914725 89.2857026,19.4738783 L89.2857026,25.6815594 C89.982453,26.1438783 90.9584098,26.678487 91.8542318,27.0601101 C91.9976308,22.3629507 95.7884256,18.6332986 100.566143,18.6332986 C103.237582,18.6332986 104.933064,19.8815594 105.697297,21.4139362 C107.27806,20.1934145 109.677041,18.6332986 111.626424,18.6332986 C113.807776,18.6332986 113.814524,20.4254145 114.885799,20.4254145 C115.252732,20.4254145 115.544591,20.0967478 115.544591,19.7310957 C115.544591,19.2822261 115.325275,18.944313 115.325275,18.5248638 C115.325275,17.7195884 116.13084,16.9882841 117.010635,16.9882841 C118.592241,16.9882841 119.493124,18.6332986 120.855415,18.6332986 C121.441664,18.6332986 122.136727,18.0499362 122.136727,17.172371 C122.136727,16.334313 121.166675,15.0196464 120.232051,14.246313 C119.590973,13.7159072 120.287724,12.7416754 121.093289,13.2039942 C123.125337,14.3757623 124.151061,16.202342 124.151061,18.268487" id="Fill-12"></path>
                <path d="M116.783221,3.27128406 C116.368207,3.27212464 116.030798,2.93673333 116.030798,2.52148696 L116.030798,0.998356522 C116.030798,0.446936232 115.584574,-0.000252173913 115.031222,-0.000252173913 C114.797566,-0.000252173913 114.587529,0.0863275362 114.417137,0.22166087 C113.76678,0.732733333 112.882768,0.878994203 112.089012,0.56797971 C111.407445,0.301515942 110.617907,0.557892754 110.241696,1.20850145 C109.864641,1.85995072 110.038406,2.67026957 110.609472,3.12586377 C111.277542,3.65711014 111.59049,4.49516812 111.47324,5.31389275 C111.441186,5.52908116 111.470709,5.75267536 111.587116,5.95441449 C111.863791,6.43270435 112.477033,6.59577681 112.955311,6.32090725 L114.276269,5.55850145 C114.63561,5.35171884 115.094487,5.47528406 115.30115,5.83337101 C115.507813,6.19229855 115.385502,6.65125507 115.026161,6.85803768 L113.706047,7.61876232 C113.226082,7.89447246 113.063282,8.50641449 113.339958,8.98386377 C113.456364,9.1856029 113.637721,9.32429855 113.837636,9.40415362 C114.608617,9.71264638 115.177152,10.4019217 115.30368,11.2450232 C115.413338,11.9662406 116.029111,12.5210232 116.783221,12.5210232 C117.536487,12.5210232 118.153103,11.9662406 118.261917,11.2450232 C118.388446,10.4019217 118.959511,9.71264638 119.728805,9.40415362 C119.929564,9.32429855 120.110078,9.1856029 120.227327,8.98386377 C120.504003,8.50641449 120.340359,7.89447246 119.860395,7.61876232 L118.539437,6.85803768 C118.180096,6.65125507 118.057785,6.19229855 118.265292,5.83337101 C118.471955,5.47528406 118.931675,5.35171884 119.291016,5.55850145 L120.611974,6.32090725 C121.089408,6.59577681 121.70265,6.43270435 121.979326,5.95441449 C122.095732,5.75267536 122.125255,5.52908116 122.094045,5.31389275 C121.975108,4.49516812 122.289742,3.65711014 122.95697,3.12586377 C123.528879,2.67026957 123.700957,1.85995072 123.325589,1.20850145 C122.948534,0.557892754 122.158996,0.301515942 121.479116,0.56797971 C120.683674,0.878994203 119.800504,0.732733333 119.148461,0.22166087 C118.978069,0.0863275362 118.768875,-0.000252173913 118.535219,-0.000252173913 C117.981868,-0.000252173913 117.5348,0.446936232 117.5348,0.998356522 L117.5348,2.52148696 C117.5348,2.93673333 117.198234,3.27128406 116.783221,3.27128406" id="Fill-14"></path>
                <path d="M38.5867318,38.8482319 C34.565655,42.8502319 28.7967974,45.556058 22.6685988,45.556058 C10.4138887,45.556058 -0.000253057065,35.5102899 -0.000253057065,22.519971 C-0.000253057065,13.7401159 4.2713502,6.12698551 10.7960049,0.293362319 C10.9891718,0.120202899 11.2616299,0 11.5475844,0 L39.8343031,0 C40.0848296,0 40.2535343,0.283275362 40.0595239,0.506028986 L30.6221824,12.9012174 C30.4872186,13.0802609 30.2392227,13.0802609 30.086545,12.9281159 C28.3134584,11.1570145 25.3071405,10.0390435 22.5074858,10.0390435 C14.8212993,10.0390435 8.69984885,17.6925217 8.69984885,25.3056522 C8.69984885,34.494029 16.4619526,42.1130435 25.7221541,42.1130435 C30.1067895,42.1130435 34.4163513,40.4125507 37.4041118,37.6613333 C38.3825991,36.7627536 39.508703,37.9303188 38.5867318,38.8482319" id="Fill-17"></path>
            </g>
        </g>
    </g>
</svg>