<?xml version="1.0" encoding="utf-8"?>
<!-- Generator: Adobe Illustrator 21.1.0, SVG Export Plug-In . SVG Version: 6.00 Build 0)  -->
<svg version="1.1" id="Layer_1" xmlns="http://www.w3.org/2000/svg" xmlns:xlink="http://www.w3.org/1999/xlink" x="0px" y="0px"
	 viewBox="0 0 400 200" style="enable-background:new 0 0 400 200;" xml:space="preserve">
<style type="text/css">
	.st0{fill:#221F20;}
</style>
<title>logo-01</title>
<desc>Created with Sketch.</desc>
<g id="layout-test">
	<g id="logo-01">
		<g id="Page-1" transform="translate(100.000000, 85.000000)">
			<path id="Fill-1" class="st0" d="M10,14c0,0-2-1.2-3.2-1.7c0,0-3.7-1.7-4.5-2.6c0,0-1.5-1.4-0.6-3c0,0,0.4-1.1,1.9-1.1
				c0,0,2,0.1,2,1.8v2.3h7.1V6.4c0,0,0.6-5.6-8.4-5.8c0,0-7.1-0.5-9.1,3.3c0,0-0.8,0.9-0.8,3.8v2.1c0,0-0.1,2.5,1.2,4.1
				c0,0,0.7,1.1,2.5,2.2c0,0,3.6,1.9,5.7,3c0,0,2.2,1.2,1.9,3.2c0,0-0.2,2-2.3,1.9c0,0-1.9-0.1-1.9-2.1v-2.3h-7.5v3.4
				c0,0-0.2,6.4,9.6,6.4c0,0,9.3,0.2,9.8-6.6v-2.7C13.3,20.3,13.6,16.2,10,14"/>
			<polygon id="Fill-3" class="st0" points="-26.6,1.4 -29,16.4 -29.6,16.4 -31.9,1.6 -43.8,1.6 -44.4,28.7 -37.4,28.7 -37.3,8.2 
				-36.7,8.2 -32.9,28.7 -25.5,28.7 -21.8,8.2 -21.3,8.2 -21.1,28.7 -14.1,28.7 -14.8,1.4 			"/>
			<polygon id="Fill-5" class="st0" points="-68.7,1.5 -73.4,28.7 -65.8,28.7 -63,7.6 -62.4,7.6 -59.6,28.7 -52,28.7 -56.7,1.5 			
				"/>
			<path id="Fill-7" class="st0" d="M91,13.6v4h2V22c0,2.1-1.8,2.2-1.8,2.2c-2.2,0-2.1-2-2.1-2V7.2c0-1.6,2-1.6,2-1.6
				c1.9,0,1.9,1.8,1.9,1.8v2.3h7.2c0.3-4.4-0.7-5.5-0.7-5.5c-1.8-4-8.5-3.8-8.5-3.8c-10.3,0-9.2,7.9-9.2,7.9v14.4
				c0.2,7.4,10.4,6.7,10.6,6.7c4.5-0.5,5.9-2,5.9-2c1.3-1,1.6-2.2,1.6-2.2c0.4-0.8,0.5-3.2,0.5-3.2v-8.4H91z"/>
			<polygon id="Fill-10" class="st0" points="67.3,18 66.9,18 59.7,1.4 51,1.4 51,28.7 58,28.7 57.6,12.1 57.9,12.1 65.5,28.7 
				73.9,28.7 73.9,1.4 66.8,1.4 			"/>
			<path id="Fill-12" class="st0" d="M33.7,21.9c0,0,0.1,2.3-2,2.3c0,0-2.2,0.1-2.2-2.2V1.4h-7.8v20.4c0,0-0.8,7.7,10.1,7.7
				c0,0,9.4,0.1,9.4-7.4V1.4h-7.6V21.9z"/>
			<path id="Fill-14" class="st0" d="M-83.5,14c0,0-2-1.2-3.2-1.7c0,0-3.7-1.7-4.5-2.6c0,0-1.5-1.4-0.6-3c0,0,0.4-1.1,1.9-1.1
				c0,0,2,0.1,2,1.8v2.3h7.1V6.4c0,0,0.6-5.6-8.4-5.8c0,0-0.7-0.1-1.7,0c0,0-5.4,0.3-7.4,3.3l-0.1,0.1c0,0-0.8,0.9-0.8,3.8v2.1
				c0,0-0.1,2.5,1.2,4.1c0,0,0.7,1.1,2.5,2.2c0,0,3.6,1.9,5.7,3c0,0,2.2,1.2,1.9,3.2c0,0-0.2,2-2.3,1.9c0,0-1.9-0.1-1.9-2.1v-2.3
				h-7.6v3.4c0,0-0.2,6.4,9.6,6.4c0,0,9.3,0.2,9.8-6.6v-2.7C-80.2,20.3-79.9,16.2-83.5,14"/>
		</g>
	</g>
</g>
</svg>
