<?xml version="1.0" encoding="utf-8"?>
<!-- Generator: Adobe Illustrator 21.1.0, SVG Export Plug-In . SVG Version: 6.00 Build 0)  -->
<svg version="1.1" id="Layer_1" xmlns="http://www.w3.org/2000/svg" xmlns:xlink="http://www.w3.org/1999/xlink" x="0px" y="0px"
	 viewBox="0 0 400 200" style="enable-background:new 0 0 400 200;" xml:space="preserve">
<style type="text/css">
	.st0{fill:#EDEFF0;}
</style>
<title>logo-04</title>
<desc>Created with Sketch.</desc>
<g id="layout-test">
	<g id="logo-04">
		<g id="Page-1" transform="translate(128.000000, 41.000000)">
			<path id="Fill-1" class="st0" d="M-87.2,52.3c-0.1-0.1-0.1-0.1-0.3-0.2c0.5-4.1,1-8.3,2-12.2h0.7C-85.4,43.7-86.5,48-87.2,52.3
				L-87.2,52.3z M-75.8,47.4c0.8-2.4,1.2-4.1,1.2-6.3c-1.1-0.6-2.2-0.2-3.2-0.1v-0.3c1.4-0.4,3.9-1.6,4.5-3.1
				c0.2-0.5,0.1-0.9-0.1-1.5c-8.6,4.9-5.7,3-5.7,5.2c0,0.9,0.3,3.6-0.1,5.1c-0.2-0.1-0.5-0.1-0.7-0.2c-0.3-2-1.2-2.5-1.7-3.6
				c0.1-1.1,0-2.7,0.1-4.9c2.4-0.1,5.7,0.3,9.6-4.7c2.6-0.5,5.3-1.8,6.4-4.3h0.5c-0.1,0.3,0.1,0.7,0.1,1c-0.5,0.9-1.1,1.8-1.8,3.2
				c-0.9,1.8-1.8,4-3,5.9c-1.8,2.9-3.8,5.9-5.4,8.6C-75.5,47.3-75.7,47.4-75.8,47.4L-75.8,47.4z M-24.6,40.4
				c0.1-2.7,0.3-5.3-0.5-7.8c-0.9-0.5-1.9-0.9-2.5-1.7c-1.6-2.1-3.4-3.8-5.9-4.7v-0.3c3,0.1,3.4,0.3,6.7,3c1.4,1.2,6.8,4.9,7.4,5.7
				c0.3,0.4,0.3,0.9,0.4,1.3c0.1,1.4-0.9,3-2.8,4.1C-22.6,40.4-23.4,40.5-24.6,40.4L-24.6,40.4z M-86.5,39c-1.3-2.8-0.9-4.9-0.7-7.7
				h0.6c-0.1,2.8-0.1,4.7,0.6,7.7H-86.5z M-45.4,26c-0.2-0.1-1.4-0.5-1.6-0.7c0-0.1,0.2-0.2,0.2-0.3c3.9-3.5,3.6-3.4,8.8-4.3
				c0.7-4.7,2.2-4.3,6.1-6.8c0.9-1.2-0.2-2.6-5.1-4.7c-0.8-0.5-0.9-0.7-1.2-1.4c0.7,0.1,2.6,0.7,4.3,2.1c1.6-0.7,4.5,1.1,5.4,1.6
				c0.4,4.3-0.9,5.5-4.2,7.6c0.2,3.1-0.1,3.3-1.3,4.9C-41.9,23.3-41.7,25.4-45.4,26L-45.4,26z M-61.6,25.4c1.4-3,5.1-4.4,8-5.9
				c3.2-2.4,4.6-5.7,5.7-9.3c2.2,0.9,1.4,5.2,0.5,7.1C-50.6,20.8-56.9,24.4-61.6,25.4L-61.6,25.4z M-51.8,23.9
				c0.1-0.1,0.1-0.3,0.1-0.4c5-2,11.5-8.2,8-13.8c-2.6-2.8-5.4-4.5-7-7.8c0.4-0.1,0.8-0.1,1.3,0c3.4,1.1,8.8,8,10.7,10.2
				c1.8,2.7,1.4,5.1-0.5,6.8C-42.2,21.6-48.1,23.9-51.8,23.9L-51.8,23.9z M-68.6,22.5c0.9-0.9,1.8-5-0.7-5.6
				c-4.6-0.6-4.1-1.4-6.8-4.9c-4.7-0.3-3.5,8.3-8.2,9.9c-0.3,0.1,0.1-0.5-0.2-0.5c1.2-1.5,2.8-2.4,3.2-4.2c0.5-2.1,1-4.2,1.6-5.1
				c0.3-0.6,0.9-0.9,1.8-1.1c0.6-0.1,1.3-0.1,2.3,0.3c0.9,0.4,1.4,0.7,2.7,1.6c0.9,0.6,3.3,1,4.4,1.1c3.2,0.3,3.5,0.6,4.7,3.2
				c0,0.5-0.3,1.3-1,1.8c-0.8,0.5-1.4,1.8-1.6,3.5c-0.4,0.1-1.4,0.6-1.8,0.5C-68.7,22.9-68.3,22.3-68.6,22.5L-68.6,22.5z
				 M-59.7,20.7c1.1-6.7,9.1-7.6,4.9-15.1c-1.9-0.1-8.1,1.3-8.5-1.4c1.5,0.1,3,0.2,4.3,0.2c0.5,0,0.5-0.5,0.9-0.5
				c5,0,9.5,2.4,7.2,8.7c-0.2,0.5-0.3,1.3-0.5,1.8c-0.1,0.1-0.1,0.4-0.4,0.7c-0.6-0.1-1.5,0.3-2.4,1c-0.7,1.9-2,3.6-3.5,3.7
				c-0.8,0.3-1.3,0.7-1.4,0.9C-59.4,20.8-59.5,20.7-59.7,20.7L-59.7,20.7z M-91.7,63.5c-2.4-3.5-4-6.1-4.4-8.1
				c-0.7-3.4,0.9-5.5,0.3-9c-1.2-2.8-2.8-5.9-3.8-8.6c-1.7-8.4,7.5-14.4,10.3-21.4c2.9-8.9,2.4-5.7,3.2-7.8c0.1-0.2-0.1-0.2-0.1-0.5
				c-3.7,0.5-6.2,1.4-7.8,2.8c-4.5,3.8-2.2,10.5-7.3,17.4c-5.1,3.6-5.3,5.9-4.9,9c0.3,2.8,1.7,5.8,3.4,8.8c1.1,2,2.5,4.1,3.2,6.3
				c-2.3-1.7-4.7-5.3-6.8-8.9c-2.6-4.3-3.6-9.1-2.4-12.8c4.2-5.1,5.7-9.9,6.6-14.3c0.6-3,1.6-5.3,4.1-7.1c1.6-1.1,4.4-2.2,8-3.2
				c3.3-1,7.2-1.9,10.1-3.8c4.1-2.6,6.2-2.4,7.9-2.2c2.2,0.4,5.5,2,7.2,2.8c0,0.2,0.1,0.5,0.1,0.7c-5.1-2.7-7.2-2.6-12.6,0.1
				c-0.1,0.3,0,0.5,0,0.8c4.7,0,6.6,1.2,10.7,3.6c2.1-0.8,6.7,2.3,7.9,3.4c0.3,0.8,1,1.4,0.7,2.2c-0.8,1.9-1.4,5.1-3,6.6
				c-1.6,1.6-2.6,2.9-2.8,4.7c-0.2,0-0.4-0.1-0.5-0.1c0.9-5.7,5.7-9.2,0.6-13.9c-9.8-8-17.3-7.2-21.1,0.9c-0.4,1-1.1,2-1.4,3.1
				c-0.5,1.8-0.5,4.1-0.8,6.2c-6.6,15.7-10.1,10.3-3.8,26.2c0.1,2,0.3,4-0.2,5.6c-1.4,4.4-2.4,6.4-0.3,10.4H-91.7z M-55.8,61.4
				c-0.2-0.1-0.6-0.3-0.8-0.4c0.9-1.8,2.8-2,3.1-4.6c0.3-2.2,1.5-3.2,3.3-3.6c0.9-0.3,1.6-0.5,2.5-0.9c0.9-0.7,1.5-1.6,1.6-2.4
				c0-1,0-2.2-0.1-3.1c-1.8-2.4-6-5.9-5.7-9.1c1.3,1,1.7,2.1,7.8,4c2.4,1.3,4.3,3.2,2.7,5.4c-3.3,2-4,3-4.3,5.9
				c-0.2,1.4-0.5,3-1.3,4.3C-48.6,59.4-51.8,61.4-55.8,61.4L-55.8,61.4z M-59.3,55.5V43.1c-0.2,0-0.3,0.1-0.5,0.1
				c-2.8,3-5,4.8-5.7,10.2c-1.3-0.1-2.3-0.7-3.3-1c-0.3-2.4,1.6-3.4,3.4-5.3c1.6-1.6,3-3.4,4.6-5.1c2.5-2.6,4.3-5.3,4.8-6.4
				c0.2,0.1,0.7,0.1,0.8,0.2c0.2,5.7,3,8.5,3.4,9.7c-0.1,0.5-0.3,0.7-0.5,1.1c-0.5,0.7-1.7,1.4-3,2.3c-2,3.6-2,3.6-3.4,6.6
				C-58.8,55.4-59,55.5-59.3,55.5L-59.3,55.5z M-124.6,110.8c-2-2.3,0.1-4.7,2.5-5c2-0.3,3.8-1.4,4.3-0.8c-0.2,0.1-0.4,0.4-0.8,0.6
				c-1.1,0.5-2.6,1.2-3.4,2.8c-0.3,0.6-0.8,1.4-1.2,1.8C-123.8,110.6-124.4,110.7-124.6,110.8L-124.6,110.8z M-119.7,117.2
				c-1.1-0.5-2.2-1.3-3.4-1.8c-1.4-0.6-2.8-1.1-3.6-1.8c-1.8-1.7-1.8-4,0.7-7.4c0.9-1.3,2.8-2.3,4.5-2.2c0.9,0,1.6-0.4,1.5-0.9
				c-1.1,0.1-2.3,0.1-3.4,0.3v-0.6c5.6-2.5,7.8-1.3,11.2,0c0.5,0.2,1.1,0,1.7,0.2c1.4-0.3,6-2,7.8-2.8c6.5-4.5,12.7-10.3,19.2-15.7
				c2.3-1.8,4.5-3.9,7-5.4c1.6-1,3.3-1.9,4.8-2.9c0.9-0.6,1.6-1.5,2.4-2.1c2.6-1.9,5.6-3.3,8.4-4.7c1.6-0.7,3-1.8,4.6-2.4
				c-0.1-0.1-0.1-0.3-0.1-0.5c-3.3,0.7-13.7,3.2-15.2,6.5c-0.1,0-0.2,0.3-0.4,0c-0.1-0.1,0-0.4-0.1-0.5c0.7-0.7,1.4-1.8,2.7-3.5
				c1.3-1.1,2.8-1.8,3.6-2.4c0-0.1-0.2-0.3-0.2-0.3c-5.1,1.6-7.1,4.1-8.3,7.6c-0.3,1-2,1.4-3.5,1.6c-4.9,0.5-6.6,0.8-9.4,2.6
				c-0.4,0.3-0.5,0.9-1,1.1c-0.3,0.2-0.5,0.3-0.8,0.5c0-0.3-0.3-0.3-0.1-0.6c1.6-2.4,3.6-4.9,5.5-7c3-2.4,6.6-4,7.2-5.5
				c-4.3,0.3-9.1,1.6-11.5,5.2c-0.2,0.1-0.4,0.1-0.6,0.1c1-4.1,4.3-7.2,8.6-8.4c0.6-0.2,0.8-0.7,1.4-0.9c0.7-3.4-0.3-4.5-2-4.8
				c-2.4-1-5.2-0.7-6.3-3.9c1.9-0.1,2.6-0.3,3.3-1.6c0.3-0.5,1.5-0.3,2.8,0.4c0.8,0,1.4-0.1,2.2-0.1c-0.1,0.3-0.1,0.7-0.1,1
				c-1,0.4-1.8,1-2.6,1.7c-0.1,0.2-0.1,0.5-0.1,0.7c5.5,3.6,8.7,3.9,13.1,0.5c0.4-1.9,0-2.8-1.4-3c-1.6,0.5-4.3,2.2-6.3,2.2
				c0.1-0.3,0.1-0.5,0.1-0.7c2.3-0.4,4-4.2,6.2-8.4c2.2-4.1,4.9-8.6,7.5-12.4c1.9-2.6,3.6-4.9,5.5-6.3c0.1-0.2,0.2-0.4,0.3-0.5h0.5
				c0,0.6-0.2,3.4,1.1,3.4c0.1-0.3,0.1-0.6,0.1-0.9h1.5c4.4,7,6.9,6.7,14.3,9.7c5.9,4.7,2.4,8-0.6,10.9c-0.3,0.3-0.5,0.9-0.7,1.3
				c0,0.5,0.1,1.1-0.1,1.8c-0.7,2.6-2.5,5.9-2.2,7.1c3.9-0.7,6.5-1.6,8.9-2.5c3.8-1.6,7.6-0.9,14.2-0.7v0.3
				c-3.2,0.4-6.3,0.9-9.7,1.8c-5.4,1.4-10.9,3.6-15.9,5.5c-4.7,1.8-9.1,4.3-13.4,6.8c-6.2,3.6-12,7.5-17,11.4
				c-8.6,8.2-15.8,14.6-24.6,18.9c-4.7,2.2-9.7,4.1-15.6,5c-2.2,0.7-4.1,2-4.7,3.3c-0.4,0.9,0.1,2.2,0.9,3.6
				c1.5,0.1,1.2-2.8,2.5-4.9c0.4-0.4,1.3-0.5,2.1-0.7c2.5,0,4.5,0.2,6.4-0.1c1.3-0.2,2.5-0.9,4.1-1.2c0,0.1,0,0.2-0.1,0.3
				c-3.7,1.4-7,2.5-10.8,3.2c-0.3,0.7-0.6,1.4-0.2,1.9c0.7,0.5,1.8,0.1,3.4,0.2c7.2,2.1,11.9,0.4,14-1.3c3.8-4.4,7.3-7.4,10.7-9.9
				c2.2-1.6,4.2-3.2,6.6-4.3c5.1-2.4,11.4-3.4,19.9-4.6c1.3-0.3,2.2-0.5,3-1.2c0.6-0.5,0.8-1.2,1.1-1.8c0.7-1.8,0.9-3.1,1.5-4.4
				c1.1-2.4,3-4.3,7.7-5.8c3.4-1.1,10-0.5,14.7-1.1c0.8-0.1,1.7,0.1,2.4-0.1c0.7-0.3,1.1-0.8,1.6-1.1c3.6-5.3,8.5-11.5,14.6-14.7
				c1.7-0.8,3.3-1.6,5.1-1.9c-0.1,0.3,0.1,0.3,0,0.5c-0.3,0.4-0.9,0.8-1.3,1.4c-2,2.6-4.4,6.6-2.1,10.2c0,0.1,0.1,0.6-0.4,0.8
				c-1.8,0.7-3.1,3.9-3.1,6.3c-2.8,4.7-9.1,7.2-16.8,6.3c-4.3-0.5-8.7-0.5-11.2,0.7c-1,0.5-1.3,1.4-1.7,2.2
				c-0.2,1.2-0.5,3.8-1.2,4.7c-1,1.4-2.4,2.2-4.1,3c-1.8,0.9-3.6,1.9-5.9,2.2c-3.5,0.6-7.6,0.2-11,0.2c-1.9,0.3-8.7,2.6-13.6,5.3
				c-3.1,1.8-5.7,4.5-5.5,6.1c0,0.3,0.5,0.1,0.7,0.3c5.5-0.5,11.1-0.7,16.3-0.5c17.4-3,34.4-6.8,53.6-3.2
				c10.7,0.3,21.4,1.1,32.3,1.8v0.3c-1.2,0-2.4-0.2-3.5,0c-1.8,0.3-2.6,0.7-5.4,0.7c-13.5-0.3-30.8-1.4-42.9,1.9
				c0.1,0.2,0.1,0.4,0.1,0.7c13.1,0.3,26.3,1.8,39.4,2.1v0.3c-0.9,0-2,0.1-3,0.1c-1.6,0.1-3,0.5-4.7,0.6c-2.2,0.1-6.5-0.1-8.8-0.1
				c-1.7,0.1-2.6,0.5-3.7,0.7c-1.1,0.2-2.5,0.1-4.1,0.1c-19.5-0.1-19.2-0.9-22.2,0c0.3,0.2,0.5,0.2,0.7,0.7
				c-6.6,0-13.3,0.2-19.8,0.1c-1.7-0.7-3.8-0.4-5.7-0.4c-6.1-1.6-14.5-2.1-21.1-0.4c-4.3-0.4-7.6,0.1-8.4,0.5
				c-1.6,0.3-2.8-0.1-4.1,0.1c-4,0.7-6.6-0.1-10-0.9C-114.4,115.9-116.8,116.4-119.7,117.2L-119.7,117.2z M-36.6,57.5V57
				c0.9-0.4,0.9-0.6,0.7-1.5c3.2-1.2,5.1-4.5,6.7-7.3c0.5-1.5,1.6-3.5,0.5-5.5c-2.8-5.6-7.2-6.3-9.6-11.3c-1.4-2.9-3.7-1.6-5.2-1.1
				c-1.8-0.1-8.1-1.8-8.5-3.4c1.1-0.2,3-0.5,4.9-0.7c3.5,0.7,6.6,0.7,7.8-0.3c3.4,0,4.7,1.5,5.5,3c2,6.1,1.8,6.6,7,10.2
				c2,2,2.6,4.3,2.4,6.5C-24.8,51.2-31.2,56.6-36.6,57.5L-36.6,57.5z"/>
		</g>
	</g>
</g>
</svg>
