<?xml version="1.0" encoding="utf-8"?>
<!-- Generator: Adobe Illustrator 21.1.0, SVG Export Plug-In . SVG Version: 6.00 Build 0)  -->
<svg version="1.1" id="Layer_1" xmlns="http://www.w3.org/2000/svg" xmlns:xlink="http://www.w3.org/1999/xlink" x="0px" y="0px"
	 viewBox="0 0 400 200" style="enable-background:new 0 0 400 200;" xml:space="preserve">
<style type="text/css">
	.st0{fill:#EDEFF0;}
</style>
<title>logo-05</title>
<desc>Created with Sketch.</desc>
<g id="layout-test">
	<g id="logo-05">
		<path id="Fill-1" class="st0" d="M16.9,68.4l0.3-0.3v-5.5l-0.3-0.3h-5.8l0.9-3.1v-0.1L11.1,56h5.8l0.3-0.3v-5.5L16.9,50H0.6
			l-0.3,0.3v5.5L0.6,56h5.9l-0.9,3.1v0.1l0.9,3.1H0.6l-0.3,0.3v5.5l0.3,0.3H16.9z M28.5,66.6c5.3,0,8.9-3.3,8.9-8.3S33.9,50,28.5,50
			h-8.2L20,50.3v16l0.3,0.3H28.5z M52.3,66.6l0.3-0.3v-4.1l-0.3-0.3h-8.1v-1.5l4.1-0.6l0.3-0.3v-2.7l-0.3-0.3L44.2,56v-1.6l8.7,0.2
			l0.3-0.3v-4.1L52.9,50h-14l-0.3,0.3v16l0.3,0.3H52.3z M60.3,67.9c4.5,0.8,7.1-0.3,8.1-3.5c0.4-1.4,0.3-2.6-0.3-3.6
			c-0.7-1.2-2.2-2.1-3.8-3c-0.9-0.4-1.6-0.7-2.1-1c-0.8-0.4-1.1-0.7-1-1c0.2-0.7,1.5-0.4,2.9,0c1.7,0.5,3.5,1.6,4.7,2.5l0.4-0.1
			L71,54l-0.1-0.3c-1.2-0.8-3.3-2-6.2-2.6c-5.3-1-8.9,0.3-9.4,3.7c-0.4,2.7,1.2,4.4,3.7,5.6l2.8,1.4c0.8,0.4,1.1,0.8,1,1.2
			c-0.2,0.6-0.9,0.6-1.9,0.3c-1.7-0.4-4.5-1.7-6.2-2.6l-0.3,0.2l-1,4.7l0.2,0.3C55.5,66.6,57.7,67.5,60.3,67.9L60.3,67.9z
			 M67.9,69.4c1.5,0.7,3.4,1.7,4.7,2.4l0.4-0.1l7.7-14l-0.1-0.4c-1.6-0.9-4-2.1-6-2.9l-0.4,0.1l-6.4,14.6L67.9,69.4z M26,54.9h1.6
			c2.7,0,3.8,1.5,3.8,3.4c0,1.9-1.1,3.4-3.8,3.4H26V54.9z M78.5,64.7c-3.5,3.8-3.4,8.9,0.6,12.5c1.2,1,2.2,1.8,3.4,2.4l-0.5,0.7
			c0.5,0.8,0.8,1.3,1.3,2.1l0.5,0.1l7.4-4.1l0.1-0.5l-3-4.6l-0.5-0.1l-3.2,2.4c-0.5-0.3-1.1-0.8-1.5-1.2c-1.4-1.8-1.7-3.8,0.2-5.5
			c1.8-1.5,4.1-0.9,5.7,0.9c1.5,1.6,2.2,3.8,2.8,5.5l0.4,0.2l4.4-2.1l0.1-0.4c-0.5-1.8-1.7-4.9-3.7-7.1C89,61.4,82.4,60.5,78.5,64.7
			L78.5,64.7z M12.1,69.4c-2.6,0-4.2,1.2-5.1,4.5l-0.9,3.3c-0.3,0.9-0.4,1.1-0.8,1.1c-0.5,0-0.7-0.8-0.7-1.8c0-1.8,0.6-4.5,1-5.8
			l-0.2-0.2L1.2,70l-0.3,0.2C0.5,71.4,0,73.8,0,76.3c0,5.1,1.8,8.1,5.3,8.1c2.8,0,4.1-1.6,4.9-4.6l0.9-3.1c0.2-0.9,0.5-1.2,0.9-1.2
			c0.6,0,0.8,0.7,0.8,1.7c0,1.9-0.8,4.8-1.4,6.6l0.3,0.3l4.8,0.3l0.3-0.3c0.5-2,0.8-4.4,0.8-7C17.6,72.9,16.2,69.4,12.1,69.4
			L12.1,69.4z M103.5,90.8l-0.3-0.2L94,92.8L94,92.5l8.3-7.2c-0.7-2.4-1.8-5.4-2.7-7.6l-0.5-0.2l-15,6.1l-0.2,0.3
			c0.6,1.5,1.1,3.2,1.6,4.6l0.4,0.2l9.1-3.4l0.1,0.3L86.7,93c0.3,1.7,0.8,4.3,1,5.9l0.3,0.2l16-2.1l0.2-0.3
			C104.2,94.9,103.9,92.5,103.5,90.8L103.5,90.8z M0.6,85.8L0.3,86v5.6l0.3,0.3h16.3l0.3-0.3V86l-0.3-0.3H0.6z M0.6,93.6l-0.3,0.3
			v5.3l0.3,0.3l9.2-0.1v0.2l-9.4,4.8v7.3l0.3,0.3h16.3l0.3-0.3v-5.3l-0.3-0.3l-9.2,0.1V106l9.5-4.8v-7.2l-0.3-0.3H0.6z M96.7,99.9
			c-5-0.6-9.1,1.8-10.2,7l-1.7,7.8l0.2,0.3l16.2,4.1l0.3-0.2c0.6-1.9,1.8-5.7,2.1-8.4C104.3,105,102.2,100.6,96.7,99.9L96.7,99.9z
			 M95.5,106c2.4,0.4,3.3,2.2,2.8,4.7l-0.3,1.4l-7.1-1.5l0.3-1.5C91.8,106.5,93.5,105.7,95.5,106L95.5,106z M0.3,119v8l14,6.2
			l2.9-1.3v-4.7l-3.6-1.1l0.8-3.1v-0.1l-0.8-3l3.5-1.1V114l-2.9-1.3L0.3,119z M92.5,122.7c0.1-1.9-0.5-3.9-2.4-5
			c-3.1-1.7-6.2-0.9-8.9,2.5l-4.6,5.9l0.1,0.4l12,11l0.4,0c1.3-1.2,2.8-2.7,3.9-4.1l-0.1-0.4l-4.2-3.1l1.7-2.2l6,1.4
			c0.9-1.3,2.1-3,2.9-4.5l-1.4-2.7L92.5,122.7z M9.6,124.9L5,123.5v-1l4.6-1.4L9.1,123v0.1L9.6,124.9z M87,125.4l-1.5,2.1l-2.7-2.1
			l1.5-2c1-1.3,2.1-1.5,2.8-1C87.8,123.1,87.9,124.2,87,125.4L87,125.4z M73.6,127.7c-2.2,1.3-4.4,2.3-6.4,3.3l-0.5,14.4l2.5,2
			c1.4-0.5,3.2-1.1,4.5-1.6l-0.7-3.6l3.4-0.7l0.1,0l2.4-2.2l2.9,2.9c1.3-0.7,2.8-1.7,3.8-2.5l-0.1-3.1L73.6,127.7z M59,132.9
			l-1.4,11.2l-0.1,0l-3.8-10.8l-5.3,0l-2.8,11h-0.1l-3-11h-5.8v3.2l6,13.4H49l2.1-9.2h0.2l3.5,9.1l6.1-0.3l4.5-14.1l-0.4-3.3
			C63.1,132.5,61.1,132.7,59,132.9L59,132.9z M8.8,132.5c-5.1,0-8.4,3.7-8.4,9.2v8l0.3,0.3h16.3l0.3-0.3v-8
			C17.2,136.2,13.8,132.5,8.8,132.5L8.8,132.5z M74,136.7L74,136.7l-1.7,1.4l-0.7-4.8l1.2-0.6l3.2,3.5L74,136.7z M24.8,133.4
			l-6.2,13.8l1.3,2.8h4.6l1.1-3.5l3.2,0.8h0.1l3.2-0.8l1.1,3.5h4.7l1.3-2.8l-6.2-13.8H24.8z M28.9,141.9L28.9,141.9l-2.1,0.4
			l1.3-4.4h1.3l1.3,4.4L28.9,141.9z M12.2,144H5.3v-1.3c0-2.7,1.6-3.8,3.5-3.8c1.9,0,3.4,1.1,3.4,3.8V144z"/>
	</g>
</g>
</svg>
