<?xml version="1.0" encoding="UTF-8"?>
<svg width="400px" height="200px" viewBox="0 0 400 200" version="1.1" xmlns="http://www.w3.org/2000/svg" xmlns:xlink="http://www.w3.org/1999/xlink">
    <!-- Generator: Sketch 44.1 (41455) - http://www.bohemiancoding.com/sketch -->
    <title>logo-05</title>
    <desc>Created with Sketch.</desc>
    <defs></defs>
    <g id="layout-test" stroke="none" stroke-width="1" fill="none" fill-rule="evenodd">
        <g id="logo-05" fill="#EDEFF0">
            <path d="M164.94653,68.3630291 L165.231749,68.0783263 L165.231749,62.6216899 L164.94653,62.313145 L159.111489,62.313145 L160.026557,59.2052565 L160.026557,59.1102888 L159.111489,56.0498841 L164.94653,56.0498841 L165.231749,55.7651813 L165.231749,50.2847028 L164.94653,50 L148.618007,50 L148.332989,50.2847028 L148.332989,55.7651813 L148.618007,56.0498841 L154.55401,56.0498841 L153.609235,59.1102888 L153.609235,59.2052565 L154.55401,62.313145 L148.618007,62.313145 L148.332989,62.6216899 L148.332989,68.0783263 L148.618007,68.3630291 L164.94653,68.3630291 Z M176.545159,66.6073285 C181.89286,66.6073285 185.48188,63.2622211 185.48188,58.2800225 C185.48188,53.297824 181.89286,50 176.545159,50 L168.2977,50 L168.012482,50.2847028 L168.012482,66.3226258 L168.2977,66.6073285 L176.545159,66.6073285 Z M200.313054,66.6073285 L200.598273,66.3226258 L200.598273,62.2183777 L200.313054,61.9336749 L192.23199,61.9336749 L192.23199,60.474498 L196.319992,59.8457877 L196.605211,59.584927 L196.605211,56.8801503 L196.319992,56.6192897 L192.23199,56.0438735 L192.23199,54.4662875 L200.907177,54.6500119 L201.192395,54.3653091 L201.192395,50.2847028 L200.907177,50 L186.931658,50 L186.646439,50.2847028 L186.646439,66.3226258 L186.931658,66.6073285 L200.313054,66.6073285 Z M208.298979,67.9360751 C212.826551,68.7603307 215.363813,67.5978779 216.374022,64.3892113 C216.80195,63.00116 216.659241,61.7912233 216.053276,60.7830429 C215.310423,59.549264 213.896372,58.6476718 212.220586,57.8292264 C211.335425,57.3962618 210.645962,57.0997381 210.164844,56.8625192 C209.315008,56.4471857 209.101044,56.1566727 209.202205,55.8184754 C209.428012,55.0711557 210.746923,55.3797006 212.08992,55.7709916 C213.765505,56.287103 215.560115,57.3309465 216.819613,58.2325387 L217.170266,58.1257501 L219.030109,54.0094807 L218.881578,53.6893153 C217.639743,52.8766802 215.560115,51.6963958 212.654336,51.0616749 C207.342362,50.0236418 203.717816,51.3878509 203.242317,54.7924635 C202.86798,57.4910292 204.412898,59.1577726 206.962003,60.3913511 L209.778463,61.7555603 C210.574707,62.1412414 210.907496,62.5385431 210.800514,62.912203 C210.628098,63.5230818 209.921173,63.5052503 208.863395,63.2501999 C207.18781,62.847088 204.406877,61.5658252 202.695765,60.6345807 L202.392683,60.8481578 L201.435865,65.5456536 L201.637987,65.8660194 C203.49783,66.62516 205.738032,67.4674475 208.298979,67.9360751 L208.298979,67.9360751 Z M215.886882,69.4188938 C217.419757,70.1423714 219.267758,71.073616 220.610755,71.7970937 L220.985092,71.6606527 L228.65007,57.6631331 L228.513582,57.248 C226.962643,56.3582286 224.47295,55.1126289 222.541852,54.3298465 L222.161494,54.4662875 L215.750194,69.0510441 L215.886882,69.4188938 Z M174.002076,54.8874312 L175.570678,54.8874312 C178.256472,54.8874312 179.349777,56.4293542 179.349777,58.2800225 C179.349777,60.1304904 178.256472,61.6726138 175.570678,61.6726138 L174.002076,61.6726138 L174.002076,54.8874312 Z M226.540736,64.7211976 C223.058698,68.4876492 223.100247,73.6060884 227.09351,77.236099 C228.252048,78.285953 229.250414,79.0214519 230.462544,79.6205098 L229.945296,80.3085249 C230.468365,81.0794864 230.795132,81.6428813 231.264609,82.3723696 L231.728064,82.4673373 L239.102003,78.3334368 L239.203164,77.8766301 L236.214288,73.2741021 L235.726948,73.2147973 L232.53615,75.6643232 C232.013283,75.3381472 231.472551,74.9109928 231.080351,74.4305443 C229.654257,72.6748438 229.37506,70.6049884 231.27043,68.9442556 C233.02329,67.4079424 235.340567,68.0544842 236.980625,69.8280163 C238.484196,71.4530862 239.196942,73.5942675 239.779422,75.3381472 L240.189487,75.4922193 L244.633962,73.3927115 L244.752786,72.9833887 C244.253804,71.2098566 243.07118,68.0783263 241.050964,65.8541985 C237.00431,61.3939217 230.408952,60.5398133 226.540736,64.7211976 L226.540736,64.7211976 Z M160.097812,69.4307146 C157.507158,69.4307146 155.938555,70.6642931 155.035329,73.9146332 L154.108418,77.1649733 C153.846884,78.0663652 153.704375,78.2799424 153.300332,78.2799424 C152.824834,78.2799424 152.634755,77.4969596 152.634755,76.4769583 C152.634755,74.6499318 153.205192,71.9691976 153.633121,70.6642931 L153.442841,70.450716 L149.16476,69.9526364 L148.855656,70.1898553 C148.475498,71.4472759 148,73.7960238 148,76.2870229 C148,81.411673 149.782768,84.3534682 153.324017,84.3534682 C156.081265,84.3534682 157.388334,82.763861 158.267875,79.798424 L159.147216,76.7141772 C159.384865,75.8362268 159.646399,75.551524 160.050242,75.551524 C160.66845,75.551524 160.834643,76.239539 160.834643,77.2597407 C160.834643,79.1340507 160.050242,82.0285624 159.40855,83.8790304 L159.693969,84.1400914 L164.518803,84.4247942 L164.804021,84.1637332 C165.255635,82.1233298 165.588223,79.798424 165.588223,77.1886151 C165.588223,72.9419154 164.186014,69.4307146 160.097812,69.4307146 L160.097812,69.4307146 Z M251.508718,90.7591807 L251.175929,90.5456035 L242.043309,92.775742 L241.960011,92.4555765 L250.225334,85.2550604 C249.536072,82.8884811 248.419082,79.863539 247.563426,77.6868951 L247.087927,77.4969596 L232.090559,83.5943276 L231.90048,83.9265142 C232.453054,85.4744479 233.035333,87.0997181 233.540337,88.5528844 L233.896811,88.7662612 L242.988083,85.3973117 L243.106908,85.7176774 L234.728782,92.965477 C235.055349,94.7153673 235.489299,97.313155 235.703263,98.8492678 L236.035851,99.062845 L252.079155,96.951316 L252.293119,96.6191294 C252.162453,94.9229339 251.865392,92.538523 251.508718,90.7591807 L251.508718,90.7591807 Z M148.618007,85.7533404 L148.332989,86.0380432 L148.332989,91.6607729 L148.618007,91.9454757 L164.94653,91.9454757 L165.231749,91.6607729 L165.231749,86.0380432 L164.94653,85.7533404 L148.618007,85.7533404 Z M148.618007,93.6298503 L148.332989,93.9145531 L148.332989,99.2289383 L148.618007,99.5136411 L157.768692,99.3713899 L157.768692,99.5847667 L148.332989,104.37723 L148.332989,111.708177 L148.618007,111.992879 L164.94653,111.992879 L165.231749,111.708177 L165.231749,106.393791 L164.94653,106.109089 L155.700906,106.25134 L155.700906,105.990479 L165.231749,101.150532 L165.231749,93.9145531 L164.94653,93.6298503 L148.618007,93.6298503 Z M244.663668,99.9347848 C239.61905,99.3000639 235.548711,101.773432 234.43152,106.957387 L232.761957,114.715287 L232.9699,115.053284 L249.173577,119.163743 L249.518208,118.932335 C250.11233,117.052214 251.282911,113.190995 251.598037,110.569365 C252.269234,105.023572 250.189606,100.62861 244.663668,99.9347848 L244.663668,99.9347848 Z M243.493087,105.984469 C245.893662,106.364139 246.796888,108.190965 246.267999,110.664333 L245.959095,112.111489 L238.905902,110.605028 L239.214806,109.12221 C239.755537,106.536043 241.484713,105.664303 243.493087,105.984469 L243.493087,105.984469 Z M148.332989,118.991639 L148.332989,126.963117 L162.355877,133.202736 L165.231749,131.921674 L165.231749,127.24782 L161.672436,126.150682 L162.498386,123.00112 L162.498386,122.906152 L161.702142,119.869389 L165.231749,118.801904 L165.231749,114.009441 L162.355877,112.728378 L148.332989,118.991639 Z M240.456842,122.692775 C240.587509,120.794623 239.969501,118.813725 238.008698,117.698556 C234.930703,115.954876 231.80534,116.767511 229.113525,120.195766 L224.514498,126.049904 L224.567889,126.447206 L236.576783,137.485099 L237.00431,137.479288 C238.26421,136.304814 239.809128,134.804164 240.872727,133.350998 L240.819136,132.947886 L236.665701,129.863639 L238.365171,127.615669 L244.366607,128.99771 C245.30536,127.728268 246.434393,125.966757 247.284028,124.513591 L245.834249,121.856499 L240.456842,122.692775 Z M157.554728,124.899272 L152.991228,123.546884 L152.991228,122.50304 L157.554728,121.12701 L157.103115,122.953836 L157.103115,123.048604 L157.554728,124.899272 Z M234.984295,125.415183 L233.439377,127.520902 L230.712035,125.397352 L232.19152,123.439895 C233.177843,122.135191 234.289011,121.963087 235.002159,122.467377 C235.845772,123.066435 235.899363,124.169583 234.984295,125.415183 L234.984295,125.415183 Z M221.620762,127.7463 C219.463858,129.021352 217.205993,130.083027 215.191598,131.067565 L214.698437,145.492239 L217.229678,147.520822 C218.626066,147.070026 220.474067,146.417473 221.698038,145.913383 L221.020819,142.324846 L224.389853,141.6192 L224.490814,141.577726 L226.90303,139.37704 L229.802988,142.236089 C231.092193,141.512411 232.565857,140.551714 233.647319,139.774542 L233.534316,136.702316 L221.620762,127.7463 Z M207.015394,132.918033 L205.648913,144.145862 L205.524067,144.151672 L201.762833,133.345188 L196.415132,133.392671 L193.646041,144.400912 L193.533238,144.400912 L190.568247,133.392671 L184.721363,133.392671 L184.721363,136.595528 L190.687072,150 L196.961684,150 L199.053154,140.818586 L199.237412,140.818586 L202.784883,149.881391 L208.869416,149.62033 L213.373304,135.569315 L212.981303,132.319176 C211.109618,132.544574 209.124929,132.740119 207.015394,132.918033 L207.015394,132.918033 Z M156.770527,132.491079 C151.684159,132.491079 148.332989,136.192215 148.332989,141.672494 L148.332989,149.715297 L148.618007,150 L164.94653,150 L165.231749,149.715297 L165.231749,141.672494 C165.231749,136.192215 161.833009,132.491079 156.770527,132.491079 L156.770527,132.491079 Z M221.989279,136.737979 L221.917823,136.761621 L220.319314,138.113809 L219.61821,133.327356 L220.770927,132.74613 L223.967745,136.275162 L221.989279,136.737979 Z M172.789946,133.392671 L166.562703,147.176614 L167.822403,150 L172.433272,150 L173.514735,146.476778 L176.711553,147.24794 L176.806693,147.24794 L180.003512,146.494609 L181.061089,150 L185.767098,150 L187.026798,147.176614 L180.82344,133.392671 L172.789946,133.392671 Z M176.877948,141.909713 L176.782808,141.909713 L174.822004,142.342677 L176.141116,137.971558 L177.47207,137.971558 L178.791382,142.342677 L176.877948,141.909713 Z M160.216837,143.9976 L153.300332,143.9976 L153.300332,142.740179 C153.300332,140.011761 154.89282,138.920433 156.770527,138.920433 C158.648033,138.920433 160.216837,140.011761 160.216837,142.740179 L160.216837,143.9976 Z" id="Fill-1"></path>
        </g>
    </g>
</svg>