<?xml version="1.0" encoding="UTF-8"?>
<svg width="400px" height="200px" viewBox="0 0 400 200" version="1.1" xmlns="http://www.w3.org/2000/svg" xmlns:xlink="http://www.w3.org/1999/xlink">
    <!-- Generator: Sketch 44.1 (41455) - http://www.bohemiancoding.com/sketch -->
    <title>logo-06</title>
    <desc>Created with Sketch.</desc>
    <defs>
        <linearGradient x1="50%" y1="0%" x2="50%" y2="100%" id="linearGradient-1">
            <stop stop-color="#FFFFFF" offset="0%"></stop>
            <stop stop-color="#000000" offset="100%"></stop>
        </linearGradient>
    </defs>
    <g id="layout-test" stroke="none" stroke-width="1" fill="none" fill-rule="evenodd">
        <g id="logo-06">
            <g id="Page-1" transform="translate(153.000000, 52.000000)">
                <g id="Group-3" transform="translate(52.346939, 60.622866)" fill="url(#linearGradient-1)">
                    <path d="M23.4553061,0.83718 C21.4409184,1.1825 19.250102,1.8809 16.9720408,2.9479 L16.9720408,2.9479 C14.7017347,4.01102 12.5516327,5.34574 10.5954082,6.84924 L10.5954082,6.84924 C8.6372449,8.35662 6.86908163,10.04054 5.37622449,11.804 L5.37622449,11.804 C3.87367347,13.57328 2.64061224,15.4318 1.76622449,17.27286 L1.76622449,17.27286 C0.882142857,19.13138 0.36255102,20.9802 0.296632653,22.72038 L0.296632653,22.72038 C0.232653061,24.47608 0.637857143,25.9563 1.43469388,27.12418 L1.43469388,27.12418 C2.24122449,28.30564 3.44908163,29.16506 4.97489796,29.67528 L4.97489796,29.67528 C6.51428571,30.18744 8.3755102,30.33682 10.4635714,30.0885 L10.4635714,30.0885 C12.5710204,29.83824 14.802551,28.62186 17.2628571,27.5277 L17.2628571,27.5277 C19.7328571,26.42966 21.6289796,24.85438 23.7596939,23.2112 L23.7596939,23.2112 C25.8923469,21.56802 27.7671429,19.80068 29.3356122,17.86844 L29.3356122,17.86844 C30.9002041,15.94396 32.4667347,14.45986 33.405102,12.56642 L33.405102,12.56642 C34.5412245,10.27916 35.0685714,8.6127 34.942551,6.88804 L34.942551,6.88804 C34.8184694,5.18084 33.9305102,3.82478 32.9494898,2.78106 L32.9494898,2.78106 C31.9762245,1.75092 30.5454082,1.1922 28.9342857,0.84106 L28.9342857,0.84106 C28.1316327,0.66646 27.2591837,0.57916 26.332449,0.57916 L26.332449,0.57916 C25.4231633,0.57916 24.4595918,0.66452 23.4553061,0.83718 M13.2282653,24.42758 C12.4818367,24.19866 11.8808163,23.80096 11.4717347,23.24612 L11.4717347,23.24612 C11.0607143,22.6971 10.8358163,21.99288 10.8396939,21.15092 L10.8396939,21.15092 C10.8435714,20.31478 11.0723469,19.4185 11.4833673,18.51446 L11.4833673,18.51446 C11.8905102,17.6143 12.4779592,16.70444 13.2011224,15.83726 L13.2011224,15.83726 C13.9281633,14.97008 14.7889796,14.14364 15.7447959,13.40644 L15.7447959,13.40644 C16.702551,12.66924 17.7553061,12.01934 18.870102,11.50912 L18.870102,11.50912 C19.9829592,10.99696 21.0512245,10.67104 22.0303061,10.51972 L22.0303061,10.51972 C23.0113265,10.37034 23.905102,10.39362 24.6670408,10.58568 L24.6670408,10.58568 C25.4328571,10.77774 26.0610204,11.13858 26.5108163,11.65656 L26.5108163,11.65656 C26.9664286,12.17842 27.2339796,12.85936 27.2766327,13.69162 L27.2766327,13.69162 C27.3173469,14.52582 27.1195918,15.42986 26.7260204,16.3533 L26.7260204,16.3533 C26.3382653,17.27868 25.7488776,18.22152 25.0121429,19.12362 L25.0121429,19.12362 C24.2695918,20.0296 23.3796939,20.89678 22.3831633,21.66502 L22.3831633,21.66502 C21.3846939,22.43326 20.2834694,23.1045 19.1260204,23.62442 L19.1260204,23.62442 C17.972449,24.14046 16.8692857,24.45862 15.8669388,24.58666 L15.8669388,24.58666 C15.5179592,24.63128 15.1844898,24.65262 14.8626531,24.65262 L14.8626531,24.65262 C14.2635714,24.65262 13.714898,24.57502 13.2282653,24.42758" id="Fill-1"></path>
                </g>
                <g id="Group-6" transform="translate(1.938776, 3.362866)" fill="url(#linearGradient-1)">
                    <path d="M28.1277551,1.22026 C25.84,2.30084 24.605,2.93328 22.4839796,4.25442 L22.4839796,4.25442 C16.1131633,8.2256 12.3247959,10.31304 7.65428571,16.03798 L7.65428571,16.03798 C5.78142857,18.333 4.67438776,19.6522 3.37346939,22.31 L3.37346939,22.31 C2.72397959,23.63696 1.95428571,25.81752 1.95428571,25.81752 L1.95428571,25.81752 L1.62857143,28.2658 L1.12255102,31.57932 L0.874387755,34.54752 L0.839489796,35.35844 C0.849183673,35.16832 0.862755102,34.97432 0.880204082,34.77838 L0.880204082,34.77838 C0.905408163,34.51648 0.938367347,34.2507 0.981020408,33.97716 L0.981020408,33.97716 C1.01979592,33.7075 1.07214286,33.43008 1.13030612,33.15072 L1.13030612,33.15072 C1.18846939,32.87136 1.25438776,32.58424 1.33193878,32.29518 L1.33193878,32.29518 C2.09,29.3619 3.38704082,26.28118 5.45959184,22.82798 L5.45959184,22.82798 C7.73765306,19.02558 9.47479592,17.08752 12.6253061,14.0068 L12.6253061,14.0068 C15.752551,10.94936 17.8328571,8.72612 21.6095918,5.95192 L21.6095918,5.95192 C23.9109184,4.26412 29.5159184,0.72944 32.8273469,0.27548 L32.8273469,0.27548 C33.0658163,0.24444 33.1220408,0.22698 33.042551,0.22698 L33.042551,0.22698 C32.68,0.22698 29.5178571,0.56454 28.1277551,1.22026 M0.831734694,35.55438 L0.839489796,35.35844 C0.83755102,35.4244 0.833673469,35.48842 0.831734694,35.55438" id="Fill-4"></path>
                </g>
                <path d="M48.1262245,1.512106 C45.6678571,2.033966 44.0237755,2.610146 41.2338776,3.803246 L41.2338776,3.803246 C38.4711224,4.982766 35.564898,6.492086 32.5694898,8.333146 L32.5694898,8.333146 C28.4069388,10.888126 24.4266327,13.866026 20.7662245,17.074786 L20.7662245,17.074786 C17.1077551,20.285486 13.7362245,23.758086 10.8086735,27.306346 L10.8086735,27.306346 C7.85204082,30.887586 5.32581633,34.575526 3.39479592,38.172286 L3.39479592,38.172286 C1.43469388,41.833066 0.610714286,45.439526 0.0581632653,48.762746 L0.0581632653,48.762746 C-0.0484693878,49.412646 0.0445918367,50.025686 0.00193877551,50.632906 L0.00193877551,50.632906 C0,50.644546 0,50.656186 0,50.669766 L0,50.669766 L0,50.760946 C0.0213265306,51.661106 0.562244898,55.250106 1.19040816,57.884626 L1.19040816,57.884626 C1.47540816,59.073846 1.61693878,59.754786 2.01438776,60.911026 L2.01438776,60.911026 C2.47969388,62.269026 3.46653061,64.294386 3.46653061,64.294386 L3.46653061,64.294386 L3.95510204,65.155746 L4.81397959,66.562246 C4.51346939,66.042326 4.25367347,65.489426 4.03846939,64.901606 L4.03846939,64.901606 C3.76897959,64.170226 3.56734694,63.384526 3.4355102,62.548386 L3.4355102,62.548386 C3.30561224,61.720006 3.23969388,60.839246 3.24938776,59.908046 L3.24938776,59.908046 C3.25714286,58.982666 3.33663265,58.008786 3.48591837,56.988346 L3.48591837,56.988346 C4.01520408,53.401286 5.39367347,49.544566 7.41387755,45.645166 L7.41387755,45.645166 C9.39918367,41.807846 12.0184694,37.896806 15.0914286,34.115746 L15.0914286,34.115746 C18.1372449,30.369606 21.6561224,26.718526 25.4852041,23.354566 L25.4852041,23.354566 C29.3142857,19.996426 33.4904082,16.892426 37.8739796,14.244326 L37.8739796,14.244326 C41.42,12.098686 44.857449,10.401186 48.1068367,9.146006 L48.1068367,9.146006 C51.3969388,7.873366 54.5047959,7.050806 57.3470408,6.678326 L57.3470408,6.678326 C60.2358163,6.301966 62.8512245,6.391206 65.0963265,6.957686 L65.0963265,6.957686 C67.1126531,7.467906 68.8323469,8.362246 70.1739796,9.648466 L70.1739796,9.648466 L68.2817347,7.681306 L65.7109184,5.407626 L64.4119388,4.389126 L61.4766327,3.217366 C59.8810204,2.712966 57.9228571,1.985466 55.8057143,1.680886 L55.8057143,1.680886 C54.4931633,1.494646 52.7036735,1.256026 50.9277551,1.256026 L50.9277551,1.256026 C49.9641837,1.256026 49.002551,1.325866 48.1262245,1.512106 L48.1262245,1.512106 Z M70.7013265,10.197486 C70.5326531,10.007366 70.3581633,9.825006 70.1739796,9.648466 L70.1739796,9.648466 L70.7013265,10.197486 Z M5.04857143,66.944426 L4.81397959,66.562246 C4.88959184,66.692226 4.96714286,66.818326 5.04857143,66.944426 L5.04857143,66.944426 Z" id="Fill-7" fill="url(#linearGradient-1)"></path>
                <path d="M64.5146939,11.221806 C61.1780612,11.567126 57.5040816,12.517726 53.6265306,14.060026 L53.6265306,14.060026 C49.8032653,15.580986 45.7667347,17.685886 41.6293878,20.374726 L41.6293878,20.374726 C37.0267347,23.366206 32.697449,26.825226 28.7830612,30.542266 L28.7830612,30.542266 C24.8628571,34.257366 21.3226531,38.261526 18.3156122,42.345226 L18.3156122,42.345226 C15.2814286,46.461906 12.7668367,50.693046 10.9521429,54.811666 L10.9521429,54.811666 C9.10255102,59.004006 7.96642857,63.114866 7.74346939,66.895926 L7.74346939,66.895926 C7.66010204,68.325706 7.7105102,69.660426 7.88887755,70.898146 L7.88887755,70.898146 C8.0672449,72.149446 8.37357143,73.295986 8.80204082,74.341646 L8.80204082,74.341646 C9.23632653,75.398946 9.79081633,76.351486 10.4635714,77.193446 L10.4635714,77.193446 C11.1421429,78.045106 11.9428571,78.784246 12.8502041,79.408926 L12.8502041,79.408926 L15.9910204,81.407126 L18.9786735,83.005686 L22.290102,84.466506 L24.1881633,85.143566 C23.1858163,84.740046 22.2726531,84.233706 21.4544898,83.628426 L21.4544898,83.628426 C20.364898,82.825266 19.4439796,81.845566 18.7072449,80.699026 L18.7072449,80.699026 C17.9821429,79.566066 17.4354082,78.270146 17.082551,76.819026 L17.082551,76.819026 C16.7335714,75.383426 16.5784694,73.794566 16.6288776,72.062146 L16.6288776,72.062146 C16.7335714,68.494486 17.704898,64.626126 19.3528571,60.684046 L19.3528571,60.684046 C20.9756122,56.807926 23.2614286,52.834806 26.0532653,48.974206 L26.0532653,48.974206 C28.8160204,45.146586 32.0964286,41.402386 35.7413265,37.941426 L35.7413265,37.941426 C39.3842857,34.482406 43.4285714,31.275586 47.7384694,28.524666 L47.7384694,28.524666 C52.0444898,25.777626 56.2496939,23.721226 60.195102,22.351586 L60.195102,22.351586 C64.202551,20.958666 69.4605102,19.936286 72.7932653,19.959566 L72.7932653,19.959566 C76.1977551,19.980906 79.1640816,20.749146 81.4867347,22.283686 L81.4867347,22.283686 C83.8597959,23.855086 84.3154082,26.501246 85.0967347,29.710006 L85.0967347,29.710006 L86.3453061,29.444226 L82.3494898,18.878986 L81.3141837,16.566506 C79.9221429,14.222986 77.632449,12.696206 75.0189796,11.745606 L75.0189796,11.745606 C73.495102,11.190766 71.2596939,10.987066 68.9816327,10.987066 L68.9816327,10.987066 C67.4422449,10.987066 65.8854082,11.080186 64.5146939,11.221806 M25.2564286,85.525746 L24.1881633,85.143566 C24.5332653,85.283246 24.89,85.409346 25.2564286,85.525746" id="Fill-9" fill="url(#linearGradient-1)"></path>
                <path d="M67.3879592,34.286466 C63.5220408,35.564926 59.4021429,37.508806 55.1969388,40.121986 L55.1969388,40.121986 C51.0227551,42.713826 47.1258163,45.742166 43.6321429,49.011066 L43.6321429,49.011066 C40.1307143,52.279966 37.0112245,55.812706 34.4055102,59.419166 L34.4055102,59.419166 C31.7823469,63.052786 29.6632653,66.781466 28.2072449,70.411206 L28.2072449,70.411206 C26.729898,74.091386 25.9233673,77.688146 25.969898,80.988086 L25.969898,80.988086 C25.9970408,83.058066 26.3576531,84.891366 27.014898,86.482166 L27.014898,86.482166 C27.6837755,88.090426 28.6531633,89.448426 29.8978571,90.540646 L29.8978571,90.540646 C31.1561224,91.648386 32.6547959,92.542726 34.467551,92.955946 L34.467551,92.955946 C36.3326531,93.378866 38.1822449,93.683446 40.547551,93.788206 L40.547551,93.788206 L41.0419388,93.774626 L44.5491837,93.555406 L47.9769388,93.118906 L49.6753061,92.820146 L52.8083673,92.119806 L55.8367347,91.254566 L56.6645918,90.984906 L57.630102,90.631826 C55.3326531,91.405886 53.1476531,91.885066 51.1255102,92.079066 L51.1255102,92.079066 C48.4480612,92.335146 46.0614286,92.094586 44.0606122,91.386486 L44.0606122,91.386486 C42.085,90.686146 40.4932653,89.531846 39.3687755,87.952686 L39.3687755,87.952686 C38.2597959,86.396806 37.6083673,84.429646 37.4959184,82.076426 L37.4959184,82.076426 C37.369898,79.434146 37.9360204,76.549366 39.0546939,73.592806 L39.0546939,73.592806 C40.1597959,70.667286 41.8135714,67.658346 43.89,64.728946 L43.89,64.728946 C45.9528571,61.815066 48.4461224,58.967146 51.2554082,56.336506 L51.2554082,56.336506 C54.0627551,53.711686 57.2016327,51.288626 60.5731633,49.234166 L60.5731633,49.234166 C63.9621429,47.166126 67.2832653,45.650986 70.3988776,44.684866 L70.3988776,44.684866 C73.5493878,43.707106 76.5040816,43.282246 79.1078571,43.414166 L79.1078571,43.414166 C81.7504082,43.549966 84.0459184,44.256126 85.8218367,45.542346 L85.8218367,45.542346 C87.6268367,46.851846 88.902551,48.758866 89.4609184,51.271166 L89.4609184,51.271166 C89.7381633,50.499046 91.4055102,49.924806 91.6245918,49.141046 L91.6245918,49.141046 C91.8436735,48.353406 92.0336735,47.561886 92.1926531,46.766486 L92.1926531,46.766486 C92.3535714,45.971086 92.8305102,41.611906 92.8692857,40.802926 L92.8692857,40.802926 C92.7006122,40.333446 92.7510204,39.908586 92.495102,39.429406 L92.495102,39.429406 C91.3085714,37.179006 90.0929592,36.325406 88.1309184,35.006206 L88.1309184,35.006206 C85.8819388,33.493006 81.570102,32.503606 78.2509184,32.435706 L78.2509184,32.435706 C78.0938776,32.431826 77.934898,32.431826 77.7759184,32.431826 L77.7759184,32.431826 C74.635102,32.431826 71.120102,33.052626 67.3879592,34.286466 L67.3879592,34.286466 Z M59.5746939,89.915966 C59.7162245,89.859706 59.8596939,89.801506 60.0031633,89.743306 L60.0031633,89.743306 L59.5746939,89.915966 Z M59.3653061,89.999386 L59.4176531,89.979986 L59.5746939,89.915966 C59.504898,89.945066 59.435102,89.972226 59.3653061,89.999386 L59.3653061,89.999386 Z M57.630102,90.631826 C58.2020408,90.439766 58.7817347,90.228306 59.3653061,89.999386 L59.3653061,89.999386 L57.630102,90.631826 Z" id="Fill-11" fill="url(#linearGradient-1)"></path>
                <g id="Group-23" transform="translate(0.000000, 0.482866)" fill="#FEFEFE">
                    <path d="M50.9804898,6.5078 C50.5287551,8.00354 49.5012041,9.61762 48.0296735,11.2511 C46.5406939,12.9001 44.5999796,14.56462 42.3413061,16.14766 C40.071,17.73652 37.4924286,19.23614 34.7451837,20.54176 C31.996,21.84932 29.0975306,22.95706 26.1913061,23.76798 C23.3025306,24.57502 20.6968163,25.00764 18.4652857,25.09882 C16.2531429,25.19 14.4171224,24.9475 13.0347755,24.40818 C11.6698776,23.87662 10.7489592,23.056 10.3476327,21.98318 C9.95018367,20.92394 10.0606939,19.62026 10.7450816,18.10512 C10.9505918,17.64728 11.2026327,17.18362 11.4992653,16.71608 C11.7920204,16.25048 12.1293673,15.781 12.5054898,15.30958 C12.8796735,14.83816 13.2906939,14.36674 13.738551,13.89726 C14.1844694,13.42584 14.6652857,12.9583 15.1790612,12.49076 L16.5575306,11.2802 L17.9127347,10.1841 L19.1981429,9.21604 L20.483551,8.31588 L21.7476327,7.4875 L22.9748776,6.74254 L24.188551,6.0519 C24.188551,6.0519 21.7263061,7.93952 20.5126327,9.47794 C19.8321224,10.34124 19.2756939,11.0959 18.9616122,11.8331 C18.6436531,12.57224 18.6165102,13.2008 18.8414082,13.70326 C19.0682449,14.2096 19.5490612,14.58984 20.2450816,14.82652 C20.9469184,15.0632 21.865898,15.15632 22.9613061,15.08842 C24.0605918,15.02052 25.3363061,14.7916 26.7457959,14.38614 C28.1591633,13.98068 29.5705918,13.43748 30.9044694,12.8031 C32.2402857,12.16678 33.4966122,11.44316 34.6114082,10.67686 C35.7223265,9.9125 36.685898,9.1074 37.4381429,8.30812 C38.1845714,7.51272 38.723551,6.72508 38.9833469,5.98982 C39.2392653,5.25844 39.2024286,4.64928 38.9116122,4.17398 C38.6246735,3.70256 38.0915102,3.35918 37.3528367,3.1613 C36.6219184,2.96148 35.7165102,3.00804 34.6443673,3.21174 C33.5954898,3.41156 32.3701837,3.5008 31.0149796,3.90238 C30.1386531,4.16234 29.6403878,4.35634 28.800898,4.74046 C31.365898,3.41156 32.8936531,2.783 35.6525306,1.91388 C37.4362041,1.35322 38.6576327,1.0273 40.2939592,0.73436 C42.2017143,0.39292 43.8089592,0.41814 45.2572245,0.53842 C46.7132449,0.6587 47.9482449,0.96522 48.9098776,1.45022 C49.8792653,1.93716 50.5733469,2.60646 50.9378367,3.44648 C51.3062041,4.29426 51.3372245,5.31858 50.9804898,6.5078" id="Fill-13"></path>
                    <path d="M86.7759082,70.348932 C86.7759082,70.348932 86.1399898,72.077472 85.568051,73.097912 C85.0348878,74.042692 83.9898878,75.385172 83.9898878,75.385172 C83.9898878,75.385172 83.6428469,75.844952 83.4140714,76.135952 C82.7742755,76.952692 81.7137653,78.184592 81.7137653,78.184592 L80.2887653,79.730772 C78.8191735,81.255612 77.1401939,82.726132 75.2925408,84.109352 C73.4390714,85.498392 71.4188673,86.796252 69.2784592,87.968012 C67.1302959,89.137832 64.8696837,90.181552 62.5334592,91.058432 C60.203051,91.935312 57.8047857,92.647292 55.3890714,93.155572 C54.9121327,93.256452 54.4410102,93.349572 53.9757041,93.431052 C53.510398,93.514472 53.0489694,93.588192 52.5933571,93.652212 C52.1396837,93.718172 51.6898878,93.776372 51.2459082,93.822932 C50.8038673,93.871432 50.3676429,93.912172 49.9352959,93.943212 L47.2966224,94.055732 L46.7169286,94.059612 L43.8940714,93.980072 L41.0246837,93.720112 C41.0246837,93.720112 40.5322347,93.658032 40.2220306,93.615352 C39.0277449,93.446572 38.3549898,93.334052 37.1781531,93.089612 C35.978051,92.841292 34.1245816,92.348532 34.1245816,92.348532 L32.5890714,91.832492 L32.1683571,91.628792 C33.2560102,92.053652 34.6693776,92.453292 36.0749898,92.666692 C37.4883571,92.883972 38.9967245,93.004252 40.5942755,93.027532 C42.1995816,93.048872 43.8901939,92.971272 45.6583571,92.783092 C47.4323367,92.596852 49.2838673,92.301972 51.1993776,91.892632 C55.5926429,90.957552 59.9432551,89.506432 64.0747857,87.665372 C68.2101939,85.824312 72.0993776,83.604952 75.5794796,81.139212 C79.0382551,78.687052 82.0685612,76.005972 84.5269286,73.222072 C85.3761122,72.259832 86.0760102,71.386832 86.7875408,70.310132 C86.8146837,70.275212 86.7759082,70.348932 86.7759082,70.348932" id="Fill-15"></path>
                    <path d="M61.5528265,2.766122 L64.6354796,3.926242 L67.6735408,5.324982 L68.7456837,5.879822 C69.5948673,6.329902 70.3374184,6.853702 70.9636429,7.451222 C71.5918061,8.052622 72.0978265,8.727742 72.4778265,9.474642 C72.8558878,10.229302 73.1021122,11.055742 73.2009898,11.955902 C73.3037449,12.863822 73.2533367,13.843522 73.0420102,14.895002 C72.4894592,17.673082 70.8647653,20.670382 68.3831327,23.712302 C65.8588469,26.808542 62.4621122,29.928062 58.4333367,32.880742 C54.3657857,35.862522 49.6855816,38.650302 44.6699694,41.042322 C39.6485408,43.436282 34.3362959,45.417022 29.0182347,46.786662 C24.2624184,48.012742 19.9467041,48.639362 16.1932347,48.724722 C12.4979286,48.810082 9.36680612,48.371642 6.90456122,47.475362 C4.48884694,46.598482 2.72456122,45.283162 1.69507143,43.591482 C0.686908163,41.934722 0.388336735,39.922942 0.873030612,37.610462 L1.08823469,36.626882 L1.96843878,33.357982 L3.06772449,30.197722 L4.19803061,27.526342 L5.23333673,25.347722 L5.06078571,25.788102 C5.09762245,25.706622 5.02007143,25.877342 5.02007143,25.877342 C4.03905102,28.054022 3.84129592,29.951342 4.34343878,31.518862 C4.86109184,33.138762 6.12517347,34.403642 8.04068367,35.257242 C9.98721429,36.124422 12.6026224,36.560922 15.776398,36.504662 C18.9908878,36.448402 22.7656837,35.885802 26.9611939,34.756722 C31.1877245,33.617942 35.4142551,32.023262 39.4120102,30.118182 C43.4117041,28.215042 47.1477245,26.017022 50.4203776,23.677382 C53.6658878,21.353262 56.4267041,18.904982 58.5128265,16.479982 C60.5718061,14.087962 61.9560918,11.732802 62.498949,9.550302 C62.7800714,8.423162 62.8207857,7.398842 62.6424184,6.481222 C62.4698673,5.573302 62.0821122,4.772082 61.5082347,4.079502 C60.9362959,3.392742 60.1782347,2.812682 59.2573163,2.345142 C58.6369082,2.028922 57.9467041,1.763142 57.1828265,1.549742 L56.0505816,1.243222 C56.5410918,1.315002 56.816398,1.367382 57.1828265,1.460502 C57.1828265,1.460502 58.2918061,1.734042 58.9936429,1.935802 C60.0018061,2.224862 61.5528265,2.766122 61.5528265,2.766122" id="Fill-17"></path>
                    <path d="M82.0140816,16.510052 L84.3076531,19.389012 L86.3860204,22.481372 L87.3166327,24.058592 C87.5938776,24.551352 87.8304082,25.063512 88.0223469,25.602832 C88.2162245,26.142152 88.367449,26.704752 88.4721429,27.292572 C88.5787755,27.880392 88.6388776,28.495372 88.6505102,29.131692 C88.6621429,29.769952 88.6253061,30.431492 88.5380612,31.118252 C88.0902041,34.656812 86.3356122,38.451452 83.5146939,42.277132 C80.637551,46.184292 76.6708163,50.093392 71.9014286,53.761932 C67.0777551,57.473152 61.4785714,60.901132 55.4334694,63.793672 C49.382551,66.688152 42.9555102,69.012272 36.5013265,70.527412 C31.9044898,71.607992 27.6391837,72.195812 23.7887755,72.335492 C19.9868367,72.473232 16.6056122,72.174472 13.7110204,71.489652 C10.8610204,70.816472 8.49183673,69.768872 6.65581633,68.397292 C4.8527551,67.050932 3.56734694,65.394172 2.84806122,63.473572 L2.11908163,61.378372 L1.12255102,57.795192 L0.424591837,54.180972 L0.279183673,53.164412 L0.0775510204,51.129352 C0.0523469388,50.935352 0.0853061224,51.129352 0.0853061224,51.129352 C0.343163265,53.069352 1.15163265,54.766852 2.49326531,56.179172 C3.9977551,57.762212 6.15561224,58.986352 8.89704082,59.791452 C11.6869388,60.610132 15.0739796,60.992312 18.9670408,60.875912 C22.9202041,60.759512 27.377449,60.130952 32.2360204,58.933972 C38.3179592,57.438232 44.3863265,55.211112 50.1095918,52.477652 C55.8309184,49.744192 61.1431633,46.535432 65.74,43.080292 C70.2883673,39.663952 74.0922449,36.040032 76.8840816,32.437452 C79.6196939,28.902772 81.3587755,25.410772 81.872551,22.170972 C82.0160204,21.261112 82.0586735,20.397812 82.0082653,19.581072 C81.9597959,18.768212 81.812449,18.001912 81.5817347,17.280232 C81.3529592,16.564372 81.035,15.895072 80.6414286,15.272332 C80.3971429,14.888212 80.1218367,14.533192 79.8193878,14.183992 L79.8193878,14.172352 L81.7252041,16.176372 L82.0140816,16.510052 Z" id="Fill-19"></path>
                    <path d="M93.3134592,43.416106 C93.5926429,46.333866 93.6818265,48.039126 93.2145816,50.933606 C92.4933571,55.405306 91.3300918,58.039826 88.8251939,61.683146 C86.2718265,65.392426 82.7316224,69.062906 78.4566224,72.473426 C74.1350918,75.916926 69.1078469,79.061666 63.6560102,81.674846 C58.2041735,84.289966 52.3859082,86.346366 46.5114184,87.626766 C43.4675408,88.288306 40.5748878,88.705406 37.8586633,88.895526 C35.1637653,89.085646 32.6491735,89.046846 30.3439694,88.804346 C28.0581531,88.563786 25.9817245,88.119526 24.137949,87.494846 C22.3116224,86.875986 20.7160102,86.076706 19.3666224,85.118346 L16.5360102,82.912566 L14.1745816,80.782446 C14.1745816,80.782446 12.565398,79.209106 11.6309082,78.116886 C10.9600918,77.335066 9.99264286,76.046906 9.99264286,76.046906 C9.82396939,75.856786 9.99264286,76.046906 9.99264286,76.046906 C11.0822347,77.296266 12.4238673,78.376846 14.1086633,79.265366 C16.0784592,80.305206 18.4321327,81.081206 21.1367245,81.560386 C23.8762143,82.043446 26.9627449,82.219986 30.355602,82.057026 C33.7833571,81.892126 37.5116224,81.378026 41.4802959,80.483686 C47.8549898,79.050026 54.1889694,76.789926 60.1410102,73.938126 C66.0833571,71.092146 71.5778469,67.687446 76.2987653,63.980106 C80.9673367,60.311566 84.8351939,56.385006 87.6250918,52.440986 C90.3626429,48.572626 92.0396837,44.717846 92.4313163,41.099746 C92.4720306,40.709806 92.4991735,40.327626 92.5108061,39.949326 C92.5243776,39.574906 92.4662143,39.167506 92.4274388,38.824126 C92.3847857,38.443886 92.9043776,40.469246 92.9043776,40.469246 C92.9043776,40.469246 93.202949,42.261806 93.3134592,43.416106" id="Fill-21"></path>
                </g>
            </g>
        </g>
    </g>
</svg>