<?xml version="1.0" encoding="utf-8"?>
<!-- Generator: Adobe Illustrator 21.1.0, SVG Export Plug-In . SVG Version: 6.00 Build 0)  -->
<svg version="1.1" id="Layer_1" xmlns="http://www.w3.org/2000/svg" xmlns:xlink="http://www.w3.org/1999/xlink" x="0px" y="0px"
	 viewBox="0 0 400 200" style="enable-background:new 0 0 400 200;" xml:space="preserve">
<style type="text/css">
	.st0{fill:url(#Fill-1_1_);}
	.st1{fill:url(#Fill-4_1_);}
	.st2{fill:url(#Fill-7_1_);}
	.st3{fill:url(#Fill-9_1_);}
	.st4{fill:url(#Fill-11_1_);}
	.st5{fill:#FEFEFE;}
</style>
<title>logo-06</title>
<desc>Created with Sketch.</desc>
<g id="layout-test">
	<g id="logo-06">
		<g id="Page-1" transform="translate(153.000000, 52.000000)">
			<g id="Group-3" transform="translate(52.346939, 60.622866)">
				
					<linearGradient id="Fill-1_1_" gradientUnits="userSpaceOnUse" x1="-209.2599" y1="87.3771" x2="-209.2599" y2="86.3771" gradientTransform="matrix(34.6708 0 0 -29.6267 7119.8237 2589.2761)">
					<stop  offset="0" style="stop-color:#FFFFFF"/>
					<stop  offset="1" style="stop-color:#000000"/>
				</linearGradient>
				<path id="Fill-1" class="st0" d="M-129.5,0.8c-2,0.3-4.2,1-6.5,2.1l0,0c-2.3,1.1-4.4,2.4-6.4,3.9l0,0c-2,1.5-3.7,3.2-5.2,5l0,0
					c-1.5,1.8-2.7,3.6-3.6,5.5l0,0c-0.9,1.9-1.4,3.7-1.5,5.4l0,0c-0.1,1.8,0.3,3.2,1.1,4.4l0,0c0.8,1.2,2,2,3.5,2.6l0,0
					c1.5,0.5,3.4,0.7,5.5,0.4l0,0c2.1-0.3,4.3-1.5,6.8-2.6l0,0c2.5-1.1,4.4-2.7,6.5-4.3l0,0c2.1-1.6,4-3.4,5.6-5.3l0,0
					c1.6-1.9,3.1-3.4,4.1-5.3l0,0c1.1-2.3,1.7-4,1.5-5.7l0,0c-0.1-1.7-1-3.1-2-4.1l0,0c-1-1-2.4-1.6-4-1.9l0,0
					c-0.8-0.2-1.7-0.3-2.6-0.3l0,0C-127.6,0.6-128.5,0.7-129.5,0.8 M-139.8,24.4c-0.7-0.2-1.3-0.6-1.8-1.2l0,0
					c-0.4-0.5-0.6-1.3-0.6-2.1l0,0c0-0.8,0.2-1.7,0.6-2.6l0,0c0.4-0.9,1-1.8,1.7-2.7l0,0c0.7-0.9,1.6-1.7,2.5-2.4l0,0
					c1-0.7,2-1.4,3.1-1.9l0,0c1.1-0.5,2.2-0.8,3.2-1l0,0c1-0.1,1.9-0.1,2.6,0.1l0,0c0.8,0.2,1.4,0.6,1.8,1.1l0,0
					c0.5,0.5,0.7,1.2,0.8,2l0,0c0,0.8-0.2,1.7-0.6,2.7l0,0c-0.4,0.9-1,1.9-1.7,2.8l0,0c-0.7,0.9-1.6,1.8-2.6,2.5l0,0
					c-1,0.8-2.1,1.4-3.3,2l0,0c-1.2,0.5-2.3,0.8-3.3,1l0,0c-0.3,0-0.7,0.1-1,0.1l0,0C-138.7,24.7-139.3,24.6-139.8,24.4"/>
			</g>
			<g id="Group-6" transform="translate(1.938776, 3.362866)">
				
					<linearGradient id="Fill-4_1_" gradientUnits="userSpaceOnUse" x1="-159.1837" y1="144.6371" x2="-159.1837" y2="143.6371" gradientTransform="matrix(32.2446 0 0 -35.3274 4996.7773 5109.8809)">
					<stop  offset="0" style="stop-color:#FFFFFF"/>
					<stop  offset="1" style="stop-color:#000000"/>
				</linearGradient>
				<path id="Fill-4" class="st1" d="M-124.9,1.2c-2.3,1.1-3.5,1.7-5.6,3l0,0c-6.4,4-10.2,6.1-14.8,11.8l0,0c-1.9,2.3-3,3.6-4.3,6.3
					l0,0c-0.6,1.3-1.4,3.5-1.4,3.5l0,0l-0.3,2.4l-0.5,3.3l-0.2,3l0,0.8c0-0.2,0-0.4,0-0.6l0,0c0-0.3,0.1-0.5,0.1-0.8l0,0
					c0-0.3,0.1-0.5,0.1-0.8l0,0c0.1-0.3,0.1-0.6,0.2-0.9l0,0c0.8-2.9,2.1-6,4.1-9.5l0,0c2.3-3.8,4-5.7,7.2-8.8l0,0
					c3.1-3.1,5.2-5.3,9-8.1l0,0c2.3-1.7,7.9-5.2,11.2-5.7l0,0c0.2,0,0.3,0,0.2,0l0,0C-120.3,0.2-123.5,0.6-124.9,1.2 M-152.2,35.6
					l0-0.2C-152.2,35.4-152.2,35.5-152.2,35.6"/>
			</g>
			
				<linearGradient id="Fill-7_1_" gradientUnits="userSpaceOnUse" x1="-154.664" y1="148" x2="-154.664" y2="147" gradientTransform="matrix(70.7013 0 0 -65.6884 10817.3027 9723.1396)">
				<stop  offset="0" style="stop-color:#FFFFFF"/>
				<stop  offset="1" style="stop-color:#000000"/>
			</linearGradient>
			<path id="Fill-7" class="st2" d="M-104.9,1.5c-2.5,0.5-4.1,1.1-6.9,2.3l0,0c-2.8,1.2-5.7,2.7-8.7,4.5l0,0
				c-4.2,2.6-8.1,5.5-11.8,8.7l0,0c-3.7,3.2-7,6.7-10,10.2l0,0c-3,3.6-5.5,7.3-7.4,10.9l0,0c-2,3.7-2.8,7.3-3.3,10.6l0,0
				c-0.1,0.6,0,1.3-0.1,1.9l0,0c0,0,0,0,0,0l0,0v0.1c0,0.9,0.6,4.5,1.2,7.1l0,0c0.3,1.2,0.4,1.9,0.8,3l0,0c0.5,1.4,1.5,3.4,1.5,3.4
				l0,0l0.5,0.9l0.9,1.4c-0.3-0.5-0.6-1.1-0.8-1.7l0,0c-0.3-0.7-0.5-1.5-0.6-2.4l0,0c-0.1-0.8-0.2-1.7-0.2-2.6l0,0
				c0-0.9,0.1-1.9,0.2-2.9l0,0c0.5-3.6,1.9-7.4,3.9-11.3l0,0c2-3.8,4.6-7.7,7.7-11.5l0,0c3-3.7,6.6-7.4,10.4-10.8l0,0
				c3.8-3.4,8-6.5,12.4-9.1l0,0c3.5-2.1,7-3.8,10.2-5.1l0,0c3.3-1.3,6.4-2.1,9.2-2.5l0,0c2.9-0.4,5.5-0.3,7.7,0.3l0,0
				c2,0.5,3.7,1.4,5.1,2.7l0,0l-1.9-2l-2.6-2.3l-1.3-1l-2.9-1.2c-1.6-0.5-3.6-1.2-5.7-1.5l0,0c-1.3-0.2-3.1-0.4-4.9-0.4l0,0
				C-103,1.3-104,1.3-104.9,1.5L-104.9,1.5z M-82.3,10.2c-0.2-0.2-0.3-0.4-0.5-0.5l0,0L-82.3,10.2z M-148,66.9l-0.2-0.4
				C-148.1,66.7-148,66.8-148,66.9L-148,66.9z"/>
			
				<linearGradient id="Fill-9_1_" gradientUnits="userSpaceOnUse" x1="-154.4456" y1="148" x2="-154.4456" y2="147" gradientTransform="matrix(78.641 0 0 -74.5387 12039.7744 11042.7119)">
				<stop  offset="0" style="stop-color:#FFFFFF"/>
				<stop  offset="1" style="stop-color:#000000"/>
			</linearGradient>
			<path id="Fill-9" class="st3" d="M-88.5,11.2c-3.3,0.3-7,1.3-10.9,2.8l0,0c-3.8,1.5-7.9,3.6-12,6.3l0,0c-4.6,3-8.9,6.5-12.8,10.2
				l0,0c-3.9,3.7-7.5,7.7-10.5,11.8l0,0c-3,4.1-5.5,8.3-7.4,12.5l0,0c-1.8,4.2-3,8.3-3.2,12.1l0,0c-0.1,1.4,0,2.8,0.1,4l0,0
				c0.2,1.3,0.5,2.4,0.9,3.4l0,0c0.4,1.1,1,2,1.7,2.9l0,0c0.7,0.9,1.5,1.6,2.4,2.2l0,0l3.1,2l3,1.6l3.3,1.5l1.9,0.7
				c-1-0.4-1.9-0.9-2.7-1.5l0,0c-1.1-0.8-2-1.8-2.7-2.9l0,0c-0.7-1.1-1.3-2.4-1.6-3.9l0,0c-0.3-1.4-0.5-3-0.5-4.8l0,0
				c0.1-3.6,1.1-7.4,2.7-11.4l0,0c1.6-3.9,3.9-7.8,6.7-11.7l0,0c2.8-3.8,6-7.6,9.7-11l0,0c3.6-3.5,7.7-6.7,12-9.4l0,0
				c4.3-2.7,8.5-4.8,12.5-6.2l0,0c4-1.4,9.3-2.4,12.6-2.4l0,0c3.4,0,6.4,0.8,8.7,2.3l0,0c2.4,1.6,2.8,4.2,3.6,7.4l0,0l1.2-0.3
				l-4-10.6l-1-2.3c-1.4-2.3-3.7-3.9-6.3-4.8l0,0c-1.5-0.6-3.8-0.8-6-0.8l0,0C-85.6,11-87.1,11.1-88.5,11.2 M-127.7,85.5l-1.1-0.4
				C-128.5,85.3-128.1,85.4-127.7,85.5"/>
			
				<linearGradient id="Fill-11_1_" gradientUnits="userSpaceOnUse" x1="-154.787" y1="148" x2="-154.787" y2="147" gradientTransform="matrix(66.9013 0 0 -61.3564 10261.8652 9113.1758)">
				<stop  offset="0" style="stop-color:#FFFFFF"/>
				<stop  offset="1" style="stop-color:#000000"/>
			</linearGradient>
			<path id="Fill-11" class="st4" d="M-85.6,34.3c-3.9,1.3-8,3.2-12.2,5.8l0,0c-4.2,2.6-8.1,5.6-11.6,8.9l0,0
				c-3.5,3.3-6.6,6.8-9.2,10.4l0,0c-2.6,3.6-4.7,7.4-6.2,11l0,0c-1.5,3.7-2.3,7.3-2.2,10.6l0,0c0,2.1,0.4,3.9,1,5.5l0,0
				c0.7,1.6,1.6,3,2.9,4.1l0,0c1.3,1.1,2.8,2,4.6,2.4l0,0c1.9,0.4,3.7,0.7,6.1,0.8l0,0l0.5,0l3.5-0.2l3.4-0.4l1.7-0.3l3.1-0.7l3-0.9
				l0.8-0.3l1-0.4c-2.3,0.8-4.5,1.3-6.5,1.4l0,0c-2.7,0.3-5.1,0-7.1-0.7l0,0c-2-0.7-3.6-1.9-4.7-3.4l0,0c-1.1-1.6-1.8-3.5-1.9-5.9
				l0,0c-0.1-2.6,0.4-5.5,1.6-8.5l0,0c1.1-2.9,2.8-5.9,4.8-8.9l0,0c2.1-2.9,4.6-5.8,7.4-8.4l0,0c2.8-2.6,5.9-5,9.3-7.1l0,0
				c3.4-2.1,6.7-3.6,9.8-4.5l0,0c3.2-1,6.1-1.4,8.7-1.3l0,0c2.6,0.1,4.9,0.8,6.7,2.1l0,0c1.8,1.3,3.1,3.2,3.6,5.7l0,0
				c0.3-0.8,1.9-1.3,2.2-2.1l0,0c0.2-0.8,0.4-1.6,0.6-2.4l0,0c0.2-0.8,0.6-5.2,0.7-6l0,0c-0.2-0.5-0.1-0.9-0.4-1.4l0,0
				c-1.2-2.3-2.4-3.1-4.4-4.4l0,0c-2.2-1.5-6.6-2.5-9.9-2.6l0,0c-0.2,0-0.3,0-0.5,0l0,0C-78.4,32.4-81.9,33.1-85.6,34.3L-85.6,34.3z
				 M-93.4,89.9c0.1-0.1,0.3-0.1,0.4-0.2l0,0L-93.4,89.9z M-93.6,90L-93.6,90l0.2-0.1C-93.5,89.9-93.6,90-93.6,90L-93.6,90z
				 M-95.4,90.6c0.6-0.2,1.2-0.4,1.7-0.6l0,0L-95.4,90.6z"/>
			<g id="Group-23" transform="translate(0.000000, 0.482866)">
				<path id="Fill-13" class="st5" d="M-102,6.5c-0.5,1.5-1.5,3.1-3,4.7c-1.5,1.6-3.4,3.3-5.7,4.9c-2.3,1.6-4.8,3.1-7.6,4.4
					c-2.7,1.3-5.6,2.4-8.6,3.2c-2.9,0.8-5.5,1.2-7.7,1.3c-2.2,0.1-4-0.2-5.4-0.7c-1.4-0.5-2.3-1.4-2.7-2.4c-0.4-1.1-0.3-2.4,0.4-3.9
					c0.2-0.5,0.5-0.9,0.8-1.4c0.3-0.5,0.6-0.9,1-1.4c0.4-0.5,0.8-0.9,1.2-1.4c0.4-0.5,0.9-0.9,1.4-1.4l1.4-1.2l1.4-1.1l1.3-1
					l1.3-0.9l1.3-0.8l1.2-0.7l1.2-0.7c0,0-2.5,1.9-3.7,3.4c-0.7,0.9-1.2,1.6-1.6,2.4c-0.3,0.7-0.3,1.4-0.1,1.9
					c0.2,0.5,0.7,0.9,1.4,1.1c0.7,0.2,1.6,0.3,2.7,0.3c1.1-0.1,2.4-0.3,3.8-0.7c1.4-0.4,2.8-0.9,4.2-1.6c1.3-0.6,2.6-1.4,3.7-2.1
					c1.1-0.8,2.1-1.6,2.8-2.4c0.7-0.8,1.3-1.6,1.5-2.3c0.3-0.7,0.2-1.3-0.1-1.8c-0.3-0.5-0.8-0.8-1.6-1c-0.7-0.2-1.6-0.2-2.7,0.1
					c-1,0.2-2.3,0.3-3.6,0.7c-0.9,0.3-1.4,0.5-2.2,0.8c2.6-1.3,4.1-2,6.9-2.8c1.8-0.6,3-0.9,4.6-1.2c1.9-0.3,3.5-0.3,5-0.2
					c1.5,0.1,2.7,0.4,3.7,0.9c1,0.5,1.7,1.2,2,2C-101.7,4.3-101.7,5.3-102,6.5"/>
				<path id="Fill-15" class="st5" d="M-66.2,70.3c0,0-0.6,1.7-1.2,2.7C-68,74-69,75.4-69,75.4s-0.3,0.5-0.6,0.8
					c-0.6,0.8-1.7,2-1.7,2l-1.4,1.5c-1.5,1.5-3.1,3-5,4.4c-1.9,1.4-3.9,2.7-6,3.9c-2.1,1.2-4.4,2.2-6.7,3.1
					c-2.3,0.9-4.7,1.6-7.1,2.1c-0.5,0.1-0.9,0.2-1.4,0.3c-0.5,0.1-0.9,0.2-1.4,0.2c-0.5,0.1-0.9,0.1-1.3,0.2c-0.4,0-0.9,0.1-1.3,0.1
					l-2.6,0.1l-0.6,0l-2.8-0.1l-2.9-0.3c0,0-0.5-0.1-0.8-0.1c-1.2-0.2-1.9-0.3-3-0.5c-1.2-0.2-3.1-0.7-3.1-0.7l-1.5-0.5l-0.4-0.2
					c1.1,0.4,2.5,0.8,3.9,1c1.4,0.2,2.9,0.3,4.5,0.4c1.6,0,3.3-0.1,5.1-0.2c1.8-0.2,3.6-0.5,5.5-0.9c4.4-0.9,8.7-2.4,12.9-4.2
					c4.1-1.8,8-4.1,11.5-6.5c3.5-2.5,6.5-5.1,8.9-7.9C-67.6,72.3-66.9,71.4-66.2,70.3C-66.2,70.3-66.2,70.3-66.2,70.3"/>
				<path id="Fill-17" class="st5" d="M-91.4,2.8l3.1,1.2l3,1.4l1.1,0.6c0.8,0.5,1.6,1,2.2,1.6c0.6,0.6,1.1,1.3,1.5,2
					c0.4,0.8,0.6,1.6,0.7,2.5c0.1,0.9,0.1,1.9-0.2,2.9c-0.6,2.8-2.2,5.8-4.7,8.8c-2.5,3.1-5.9,6.2-9.9,9.2c-4.1,3-8.7,5.8-13.8,8.2
					c-5,2.4-10.3,4.4-15.7,5.7c-4.8,1.2-9.1,1.9-12.8,1.9c-3.7,0.1-6.8-0.4-9.3-1.2c-2.4-0.9-4.2-2.2-5.2-3.9c-1-1.7-1.3-3.7-0.8-6
					l0.2-1l0.9-3.3l1.1-3.2l1.1-2.7l1-2.2l-0.2,0.4c0-0.1,0,0.1,0,0.1c-1,2.2-1.2,4.1-0.7,5.6c0.5,1.6,1.8,2.9,3.7,3.7
					c1.9,0.9,4.6,1.3,7.7,1.2c3.2-0.1,7-0.6,11.2-1.7c4.2-1.1,8.5-2.7,12.5-4.6c4-1.9,7.7-4.1,11-6.4c3.2-2.3,6-4.8,8.1-7.2
					c2.1-2.4,3.4-4.7,4-6.9c0.3-1.1,0.3-2.2,0.1-3.1c-0.2-0.9-0.6-1.7-1.1-2.4c-0.6-0.7-1.3-1.3-2.3-1.7c-0.6-0.3-1.3-0.6-2.1-0.8
					l-1.1-0.3c0.5,0.1,0.8,0.1,1.1,0.2c0,0,1.1,0.3,1.8,0.5C-93,2.2-91.4,2.8-91.4,2.8"/>
				<path id="Fill-19" class="st5" d="M-71,16.5l2.3,2.9l2.1,3.1l0.9,1.6c0.3,0.5,0.5,1,0.7,1.5c0.2,0.5,0.3,1.1,0.4,1.7
					c0.1,0.6,0.2,1.2,0.2,1.8c0,0.6,0,1.3-0.1,2c-0.4,3.5-2.2,7.3-5,11.2c-2.9,3.9-6.8,7.8-11.6,11.5c-4.8,3.7-10.4,7.1-16.5,10
					c-6.1,2.9-12.5,5.2-18.9,6.7c-4.6,1.1-8.9,1.7-12.7,1.8c-3.8,0.1-7.2-0.2-10.1-0.8c-2.8-0.7-5.2-1.7-7.1-3.1
					c-1.8-1.3-3.1-3-3.8-4.9l-0.7-2.1l-1-3.6l-0.7-3.6l-0.1-1l-0.2-2c0-0.2,0,0,0,0c0.3,1.9,1.1,3.6,2.4,5c1.5,1.6,3.7,2.8,6.4,3.6
					c2.8,0.8,6.2,1.2,10.1,1.1c4-0.1,8.4-0.7,13.3-1.9c6.1-1.5,12.2-3.7,17.9-6.5c5.7-2.7,11-5.9,15.6-9.4c4.5-3.4,8.4-7,11.1-10.6
					c2.7-3.5,4.5-7,5-10.3c0.1-0.9,0.2-1.8,0.1-2.6c0-0.8-0.2-1.6-0.4-2.3c-0.2-0.7-0.5-1.4-0.9-2c-0.2-0.4-0.5-0.7-0.8-1.1v0l1.9,2
					L-71,16.5z"/>
				<path id="Fill-21" class="st5" d="M-59.7,43.4c0.3,2.9,0.4,4.6-0.1,7.5c-0.7,4.5-1.9,7.1-4.4,10.7c-2.6,3.7-6.1,7.4-10.4,10.8
					c-4.3,3.4-9.3,6.6-14.8,9.2c-5.5,2.6-11.3,4.7-17.1,6c-3,0.7-5.9,1.1-8.7,1.3c-2.7,0.2-5.2,0.2-7.5-0.1
					c-2.3-0.2-4.4-0.7-6.2-1.3c-1.8-0.6-3.4-1.4-4.8-2.4l-2.8-2.2l-2.4-2.1c0,0-1.6-1.6-2.5-2.7C-142,77.3-143,76-143,76
					c-0.2-0.2,0,0,0,0c1.1,1.2,2.4,2.3,4.1,3.2c2,1,4.3,1.8,7,2.3c2.7,0.5,5.8,0.7,9.2,0.5c3.4-0.2,7.2-0.7,11.1-1.6
					c6.4-1.4,12.7-3.7,18.7-6.5c5.9-2.8,11.4-6.3,16.2-10c4.7-3.7,8.5-7.6,11.3-11.5c2.7-3.9,4.4-7.7,4.8-11.3
					c0-0.4,0.1-0.8,0.1-1.2c0-0.4,0-0.8-0.1-1.1c0-0.4,0.5,1.6,0.5,1.6S-59.8,42.3-59.7,43.4"/>
			</g>
		</g>
	</g>
</g>
</svg>
