<?xml version="1.0" encoding="utf-8"?>
<!-- Generator: Adobe Illustrator 21.1.0, SVG Export Plug-In . SVG Version: 6.00 Build 0)  -->
<svg version="1.1" id="Layer_1" xmlns="http://www.w3.org/2000/svg" xmlns:xlink="http://www.w3.org/1999/xlink" x="0px" y="0px"
	 viewBox="0 0 400 200" style="enable-background:new 0 0 400 200;" xml:space="preserve">
<title>logo-03</title>
<desc>Created with Sketch.</desc>
<g id="layout-test">
	<g id="logo-03">
		<g id="Page-1" transform="translate(126.000000, 71.000000)">
			<path id="Fill-1" d="M20.6,20.9c0-0.3-0.2-0.4-0.5-0.4h-0.6v0.8h0.6C20.4,21.3,20.6,21.2,20.6,20.9 M21.1,20.9
				c0,0.4-0.4,0.7-0.7,0.8l0.7,1.2h-0.5l-0.7-1.1h-0.5v1.1H19V20h1.2C20.7,20,21.1,20.4,21.1,20.9"/>
			<path id="Fill-3" d="M20,23.4c1.1,0,1.9-0.9,1.9-1.9c0-1.1-0.9-1.9-1.9-1.9S18,20.4,18,21.4C18,22.5,18.9,23.4,20,23.4
				 M17.7,21.4c0-1.3,1-2.3,2.3-2.3c1.3,0,2.3,1,2.3,2.3c0,1.3-1,2.3-2.3,2.3C18.7,23.7,17.7,22.7,17.7,21.4"/>
			<path id="Fill-5" d="M-99.6,24.7c0-1.1-1.5-2.2-2.9-2.2c-2.6,0-4.2,2-4.2,4.9c0,2.9,1.6,4.9,4.2,4.9c1.4,0,2.9-1.1,2.9-2.2V24.7z
				 M-75.4,22.5c0,2.2-1.7,3.9-3.9,3.9c-1,0-1.9-0.9-1.9-1.9c0-1,0.5-1,0.5-1.6c0-0.5-0.4-0.9-0.9-0.9c-0.8,0-1.4,0.6-1.4,1.4v10
				c0,0.2,0.2,0.3,0.3,0.3l1,0.3c0.1,0,0.3,0.1,0.3,0.3v0.8c0,0.2-0.1,0.3-0.3,0.3H-88c-0.2,0-0.3-0.1-0.3-0.3v-4.5
				c-1.8,1.9-5.4,5.4-7.3,5.4c-2.1,0-1.8-2.3-3.4-2.3c-1.4,0-1.5,2.3-5.3,2.3c-4.1,0-7.5-3.9-7.5-8.7c0-4.8,3.4-8.7,7.5-8.7
				c3.4,0,4.2,1.8,5,1.8c0.5,0,0.7-0.4,0.8-1c0-0.2,0.2-0.3,0.4-0.3h5.3c0.2,0,0.3,0.1,0.3,0.3v0.8c0,0.2-0.2,0.3-0.3,0.3l-1,0.3
				c-0.1,0-0.3,0.1-0.3,0.3v8.8c0,0.6,0.5,1.1,1.1,1.1c1.1,0,3.3-1.9,4.7-3.1v-6.2c0-0.4-0.3-0.6-0.6-0.6c-0.4,0-0.4,0.4-0.9,0.4
				c-0.5,0-0.8-0.4-0.8-0.8c0-0.7,1.2-2.2,3.2-2.2c3.4,0,2.8,2.5,4,2.5c1.1,0,1.3-2.5,4.2-2.5C-77.1,18.6-75.4,20.3-75.4,22.5
				L-75.4,22.5z"/>
			<path id="Fill-7" d="M-73.7,30.1c0,4.3,3.2,5.5,5.4,5.5h11.1c2.5,0,4.9-1.8,4.9-4.8c0-4.5-6.9-4.1-6.9-6.6c0-1,1-1.4,2.3-1.4
				c0.9,0,2.2,0.4,3,1c0.3,0.2,0.5,0,0.5-0.1l1.7-3.9c0.1-0.2,0-0.4-0.3-0.4h-8c-2.2,0-4.1,1.9-4.1,4.2c0,4.6,6,3.8,6,6.9
				c0,1.2-1,2.2-2.3,2.2c-2.7,0-3.8-1.8-3.9-2.8c0-0.2-0.3-0.3-0.5-0.3l-1.1,0.4c-0.2,0.1-0.2,0.4-0.1,0.5c0.2,0.2,0.3,0.5,0.3,0.8
				c0,0.7-0.6,1.3-1.3,1.3s-1.3-0.6-1.3-1.3V8.3c0-0.2-0.1-0.3-0.3-0.3H-75c-0.2,0-0.3,0.1-0.3,0.3v0.8c0,0.2,0.2,0.3,0.3,0.3l1,0.3
				c0.1,0,0.3,0.1,0.3,0.3V30.1z"/>
			<path id="Fill-9" d="M9,24.7c0-1.1-1.5-2.2-2.9-2.2c-2.6,0-4.2,2-4.2,4.9c0,2.9,1.6,4.9,4.2,4.9C7.5,32.2,9,31.1,9,30V24.7z
				 M16.1,19.5v0.8c0,0.2-0.2,0.3-0.3,0.3l-1,0.3c-0.1,0-0.3,0.1-0.3,0.3V38c0,4.1-3.5,7.4-7.5,7.4c-2.8,0-5.2-1.3-6.5-3.4
				c-1.7,3-7.1,9.4-23,9.4c-8.8,0-23.6-4.3-31.3-4.3c-10.6,0-17.6,2.9-24.9,10.2c-0.2,0.2-0.3,0.2-0.5,0.1L-93,50
				c-0.2-0.1-0.3-0.4-0.1-0.5c9-7.6,22-11.5,31.2-11.5c18,0,30.5,8.9,45.3,8.9c12.5,0,16.1-6.2,16.1-8.3c0-0.2,0.2-0.3,0.3-0.3H1
				c0.1,0,0.3,0.1,0.3,0.3c0,2.1,1.7,3.7,3.9,3.7c2.2,0,3.8-1.7,3.8-3.9v-3.2c0-0.4-0.2-0.6-0.6-0.6c-0.6,0-1.1,1.6-4.3,1.6
				c-4.1,0-7.5-3.9-7.5-8.7c0-4.8,3.4-8.7,7.5-8.7c3.4,0,4.2,1.8,5,1.8c0.5,0,0.7-0.4,0.8-1c0-0.2,0.2-0.3,0.4-0.3h5.3
				C15.9,19.1,16.1,19.3,16.1,19.5L16.1,19.5z"/>
			<path id="Fill-12" d="M-23,23.6c0-0.5-0.1-1.7-1.7-1.7c-1.8,0-3.8,2.2-3.8,5.9C-24.9,27.8-23,25-23,23.6 M-1.8,18.3
				c0,3.4-2.1,5.2-3.9,5.2c-2.1,0-1.8-1.4-3.1-1.4c-0.8,0-1.5,0.6-1.5,1.4v10c0,0.2,0.2,0.3,0.3,0.3l1,0.3c0.1,0,0.3,0.1,0.3,0.3
				v0.8c0,0.2-0.1,0.3-0.3,0.3h-6.4c-0.2,0-0.3-0.1-0.3-0.3V23.6c0-0.9-0.6-1.3-1.3-1.3c-0.7,0-1.7,0.6-2.7,1.3
				c-0.1,3.6-3.3,6.3-8.3,6.3c0,0.7,1.6,3.3,4.7,3.3c1.8,0,3.2-0.7,4.2-1.9c0.4-0.6,1.5-0.3,1,0.8c-0.5,1.1-2.7,4.1-7.1,4.1
				c-4.2,0-7.7-2.9-8.5-6.8c-1-0.3-2-0.8-2.8-1.3V31c0,2.6-1.8,4.5-4.6,4.5H-44c-3.9,0-6.3-2.2-6.3-5.5V10c0-0.2-0.1-0.3-0.3-0.3
				l-1-0.3c-0.1,0-0.3-0.1-0.3-0.3V8.3c0-0.2,0.1-0.3,0.3-0.3h6.4c0.2,0,0.3,0.1,0.3,0.3v22.2c0,1.6,1.6,2.3,2.7,2.3
				c1.2,0,2.7-0.5,2.7-2.2v-4.4l-2.2-1.3c-0.3-0.2-0.5-0.4-0.5-0.8v-4.6c0-0.2,0.1-0.3,0.3-0.3h4.8c0.2,0,0.3,0.1,0.3,0.3v6.2
				c0.7,0.5,1.7,1,2.6,1.4c0.1-4.7,3.9-8.4,8.7-8.4c2.7,0,4.4,1.2,5.1,2.8c1.6-1.2,4-2.8,5.9-2.8c2.2,0,2.2,1.8,3.3,1.8
				c0.4,0,0.7-0.3,0.7-0.7c0-0.4-0.2-0.8-0.2-1.2c0-0.8,0.8-1.5,1.7-1.5c1.6,0,2.5,1.6,3.8,1.6c0.6,0,1.3-0.6,1.3-1.5
				c0-0.8-1-2.2-1.9-2.9c-0.6-0.5,0.1-1.5,0.9-1C-2.9,14.4-1.8,16.2-1.8,18.3"/>
			<path id="Fill-14" d="M-9.2,3.3c-0.4,0-0.8-0.3-0.8-0.7V1c0-0.6-0.4-1-1-1c-0.2,0-0.4,0.1-0.6,0.2c-0.7,0.5-1.5,0.7-2.3,0.3
				c-0.7-0.3-1.5,0-1.8,0.6c-0.4,0.7-0.2,1.5,0.4,1.9c0.7,0.5,1,1.4,0.9,2.2c0,0.2,0,0.4,0.1,0.6c0.3,0.5,0.9,0.6,1.4,0.4l1.3-0.8
				c0.4-0.2,0.8-0.1,1,0.3c0.2,0.4,0.1,0.8-0.3,1l-1.3,0.8c-0.5,0.3-0.6,0.9-0.4,1.4c0.1,0.2,0.3,0.3,0.5,0.4c0.8,0.3,1.3,1,1.5,1.8
				c0.1,0.7,0.7,1.3,1.5,1.3c0.8,0,1.4-0.6,1.5-1.3c0.1-0.8,0.7-1.5,1.5-1.8C-6.1,9.3-5.9,9.2-5.8,9c0.3-0.5,0.1-1.1-0.4-1.4
				l-1.3-0.8c-0.4-0.2-0.5-0.7-0.3-1c0.2-0.4,0.7-0.5,1-0.3l1.3,0.8C-4.9,6.6-4.3,6.4-4,6c0.1-0.2,0.1-0.4,0.1-0.6
				C-4,4.5-3.7,3.7-3,3.1c0.6-0.5,0.7-1.3,0.4-1.9c-0.4-0.7-1.2-0.9-1.8-0.6c-0.8,0.3-1.7,0.2-2.3-0.3C-7,0.1-7.2,0-7.5,0
				c-0.6,0-1,0.4-1,1v1.5C-8.5,2.9-8.8,3.3-9.2,3.3"/>
			<path id="Fill-17" d="M-87.4,38.8c-4,4-9.8,6.7-15.9,6.7c-12.3,0-22.7-10-22.7-23c0-8.8,4.3-16.4,10.8-22.2
				c0.2-0.2,0.5-0.3,0.8-0.3h28.3c0.3,0,0.4,0.3,0.2,0.5l-9.4,12.4c-0.1,0.2-0.4,0.2-0.5,0c-1.8-1.8-4.8-2.9-7.6-2.9
				c-7.7,0-13.8,7.7-13.8,15.3c0,9.2,7.8,16.8,17,16.8c4.4,0,8.7-1.7,11.7-4.5C-87.6,36.8-86.5,37.9-87.4,38.8"/>
		</g>
	</g>
</g>
</svg>
