<svg xmlns="http://www.w3.org/2000/svg">
  <symbol id="icon__scroll" viewBox="0 0 20 30">
    <g stroke-width="2" fill="none">
        <rect id="mouse__body" x="1" y="1" width="18" height="28" rx="9"></rect>
        <path id="mouse__knot" d="M10,8 L10,11" stroke-linecap="round"></path>
    </g>
  </symbol>
  <symbol id="icon__arrow" viewBox="0 0 24 14">
    <polygon points="16.6944145 14.9208092 23.7654823 7.84974136 22.3512688 6.4355278 15.280201 13.5065956"></polygon>
    <polygon points="23.6815587 8.04803608 16.6104909 0.976968263 15.1962774 2.39118183 22.2673452 9.46224964"></polygon>
    <polygon points="0 7 21 7 21 9 0 9"></polygon>
  </symbol>
  <symbol id="icon__linkedin" viewBox="0 0 18 18" >
    <g id="From_Your_Friends_at_User10.com">
    	<linearGradient id="SVGID_1_" gradientUnits="userSpaceOnUse" x1="25.2373" y1="407.8716" x2="25.2373" y2="-92.1279">
    		<stop  offset="0" style="stop-color:#F2F2F2"/>
    		<stop  offset="0.6319" style="stop-color:#FFFFFF"/>
    		<stop  offset="1" style="stop-color:#FEFEFE"/>
    	</linearGradient>
    	<rect x="-474.763" y="-92.128" fill="url(#SVGID_1_)" width="1000" height="500"/>
    </g>
    <g id="RAW_ICONS_-_SQUARE__x2F__ROUNDED__x2F__CIRCLE">
    	<g>
    		<path d="M13.051,6.087c-1.82,0-2.635,0.999-3.092,1.703v0.034H9.937c0.008-0.01,0.017-0.022,0.022-0.034V6.33H6.53
    			c0.044,0.967,0,10.317,0,10.317h3.429v-5.762c0-0.31,0.022-0.615,0.113-0.836c0.248-0.615,0.813-1.256,1.76-1.256
    			c1.242,0,1.738,0.948,1.738,2.334v5.52H17v-5.916C17,7.561,15.307,6.087,13.051,6.087z"/>
    		<path d="M2.939,1.354C1.768,1.354,1,2.125,1,3.137C1,4.126,1.744,4.92,2.895,4.92h0.022c1.196,0,1.94-0.794,1.94-1.783
    			C4.836,2.125,4.113,1.354,2.939,1.354z"/>
    		<rect x="1.202" y="6.33" width="3.431" height="10.317"/>
    	</g>
    </g>
	</symbol>
	<symbol id="icon__facebook" viewBox="0 0 18 18" >
		<path d="M12.719,6.181h-2.533V4.521c0-0.624,0.414-0.769,0.705-0.769c0.29,0,1.786,0,1.786,0V1.009L10.216,1
			C7.484,1,6.863,3.045,6.863,4.354v1.828h-1.58v2.824h1.58c0,3.626,0,7.995,0,7.995h3.322c0,0,0-4.412,0-7.995h2.242L12.719,6.181z"
			/>
	</symbol>
  <symbol id="icon__instagram" viewBox="0 0 18 18" >
    <path d="M9,1.622c2.403,0,2.688,0.009,3.637,0.053c0.877,0.04,1.354,0.187,1.671,0.31c0.42,0.164,0.72,0.358,1.035,0.673
  		s0.51,0.615,0.673,1.035c0.123,0.317,0.27,0.794,0.31,1.671C16.369,6.312,16.378,6.597,16.378,9c0,2.403-0.009,2.688-0.053,3.637
  		c-0.04,0.877-0.187,1.354-0.31,1.671c-0.164,0.42-0.358,0.72-0.673,1.035s-0.615,0.51-1.035,0.673
  		c-0.317,0.123-0.794,0.27-1.671,0.31c-0.949,0.043-1.233,0.053-3.637,0.053s-2.688-0.009-3.637-0.053
  		c-0.877-0.04-1.354-0.187-1.671-0.31c-0.42-0.164-0.72-0.358-1.035-0.673s-0.51-0.615-0.673-1.035
  		c-0.123-0.317-0.27-0.794-0.31-1.671C1.631,11.688,1.622,11.403,1.622,9c0-2.403,0.009-2.688,0.053-3.637
  		c0.04-0.877,0.187-1.354,0.31-1.671c0.164-0.42,0.358-0.72,0.673-1.035s0.615-0.51,1.035-0.673c0.317-0.123,0.794-0.27,1.671-0.31
  		C6.312,1.631,6.597,1.622,9,1.622 M9,0C6.556,0,6.249,0.01,5.29,0.054C4.332,0.098,3.677,0.25,3.104,0.473
  		C2.513,0.703,2.011,1.01,1.511,1.511c-0.5,0.5-0.808,1.002-1.038,1.594C0.25,3.677,0.098,4.332,0.054,5.29C0.01,6.249,0,6.556,0,9
  		s0.01,2.75,0.054,3.71c0.043,0.958,0.196,1.612,0.418,2.185c0.23,0.592,0.538,1.094,1.038,1.594c0.5,0.5,1.002,0.808,1.594,1.038
  		c0.573,0.223,1.227,0.375,2.185,0.418C6.249,17.99,6.556,18,9,18s2.75-0.01,3.71-0.054c0.958-0.043,1.612-0.196,2.185-0.418
  		c0.592-0.23,1.094-0.538,1.594-1.038c0.5-0.5,0.808-1.002,1.038-1.594c0.223-0.573,0.375-1.227,0.418-2.185
  		C17.99,11.75,18,11.444,18,9s-0.01-2.751-0.054-3.71c-0.043-0.958-0.196-1.612-0.418-2.185c-0.23-0.592-0.538-1.094-1.038-1.594
  		c-0.5-0.5-1.002-0.808-1.594-1.038c-0.573-0.223-1.227-0.375-2.185-0.418C11.75,0.01,11.444,0,9,0L9,0z"/>
  	<path d="M9,4.378C6.448,4.378,4.378,6.448,4.378,9S6.448,13.622,9,13.622S13.622,11.552,13.622,9S11.552,4.378,9,4.378z M9,12
  		c-1.657,0-3-1.343-3-3s1.343-3,3-3s3,1.343,3,3S10.657,12,9,12z"/>
  	<circle cx="13.804" cy="4.196" r="1.08"/>
	</symbol>
  <symbol id="icon__twitter" viewBox="0 0 16 13">
    <path class="st0" d="M16,1.5c-0.6,0.3-1.2,0.4-1.9,0.5c0.7-0.4,1.2-1,1.4-1.8c-0.6,0.4-1.3,0.6-2.1,0.8c-0.6-0.6-1.5-1-2.4-1
    	C9.3,0,7.8,1.5,7.8,3.3c0,0.3,0,0.5,0.1,0.7C5.2,3.9,2.7,2.6,1.1,0.6c-0.3,0.5-0.4,1-0.4,1.7c0,1.1,0.6,2.1,1.5,2.7
    	c-0.5,0-1-0.2-1.5-0.4c0,0,0,0,0,0c0,1.6,1.1,2.9,2.6,3.2C3,7.9,2.7,7.9,2.4,7.9c-0.2,0-0.4,0-0.6-0.1c0.4,1.3,1.6,2.3,3.1,2.3
    	c-1.1,0.9-2.5,1.4-4.1,1.4c-0.3,0-0.5,0-0.8,0C1.5,12.5,3.2,13,5,13c6,0,9.3-5,9.3-9.3c0-0.1,0-0.3,0-0.4C15,2.8,15.6,2.2,16,1.5z"
    	/>
  </symbol>
</svg>
